<svg id="Layer_1" data-name="Layer 1" xmlns="http://www.w3.org/2000/svg" viewBox="0 0 50 50"><defs><style>.cls-1{fill:#ededed;}.cls-2{fill:#b91c1b;}</style></defs><title>Untitled-1</title><path class="cls-1" d="M25,0A25,25,0,1,0,50,25,25,25,0,0,0,25,0Z"/><path class="cls-2" d="M15.4,28l.5,5.6c.9,2,9.3,6.9,17.8,0l.6-6-9.2,4.8Z"/><polygon class="cls-2" points="39.7 20.3 39.7 21.1 38.7 36.9 40.8 36.9 39.8 21 39.7 20.3"/><polygon class="cls-2" points="8.5 19.9 9.7 20.5 15.3 23 25.3 27.5 34.2 22.8 40.2 19.7 41.5 19.1 25.5 12.8 8.5 19.9"/></svg>