<svg id="Layer_1" data-name="Layer 1" xmlns="http://www.w3.org/2000/svg" viewBox="0 0 50 50"><defs><style>.cls-1{fill:#ededed;}.cls-2{fill:#b91c1b;}</style></defs><title>Untitled-1</title><path class="cls-1" d="M25,0A25,25,0,1,0,50,25,25,25,0,0,0,25,0Z"/><path class="cls-2" d="M40,33.7c.1,1-1.2,1.9-1.8,2.6l-2.7,2.6c-1.3,1.3-2.7,1.2-4.4.9a19.5,19.5,0,0,1-6.5-2.7,35.9,35.9,0,0,1-11-10.6,22.4,22.4,0,0,1-3.2-6.6c-.4-1.7-.8-3.8.5-5.2l2.3-2.3a13.9,13.9,0,0,1,2.1-2.1c1.3-.9,2.1.5,2.6,1.4l1.9,3.6c.3.8,1,1.7,1.2,2.5s-1.5,2.1-2.1,3.1.4,2.1.8,2.8a12.1,12.1,0,0,0,2,2.6,21.2,21.2,0,0,0,5.4,4.5,2.4,2.4,0,0,0,2,.4c.5-.4.9-1.1,1.4-1.5a2.2,2.2,0,0,1,3-.4l3.8,2.2C38.1,32,39.8,32.6,40,33.7Z"/></svg>