<svg id="Layer_1" data-name="Layer 1" xmlns="http://www.w3.org/2000/svg" viewBox="0 0 50 50"><defs><style>.cls-1{fill:#ededed;}.cls-2{fill:#b91c1b;}</style></defs><title>Untitled-1</title><path class="cls-1" d="M25,0A25,25,0,1,0,50,25,25,25,0,0,0,25,0Z"/><path class="cls-2" d="M25,40A15,15,0,1,0,10,25,15,15,0,0,0,25,40ZM12.6,25A12.3,12.3,0,0,1,21,13.3h-.1c-.5.6-1.2,0-1,1.8s-.1,2.7,1.2,3,1.9-.1,2.8,0,.8,2.4,1.1,2.4a7.2,7.2,0,0,0,4.7,4.2c.7.2-.8,1.8-1.9,2.2s-2,.5-2.1,1.7,1.4.4,1.9.6,2.2.9,2.9-.1,3.8-.7,3.6-1.8,3.5-3.6,2.3-5.3-.2-1.5-.3-2.8A12,12,0,0,1,37.4,25,12.4,12.4,0,0,1,25,37.4a12.2,12.2,0,0,1-4.3-.8,7.2,7.2,0,0,0,1.2-1.9,7.4,7.4,0,0,0-.3-1.7A7.4,7.4,0,0,0,20,31c-.3-.2,0-1.4,0-2.1s-1.7-1.2-2.4-1.6-.9,1.1-1.6.8-.6-1.4-.8-2.2-1.7-.9-2.6-.9Z"/></svg>