<?xml version="1.0" encoding="utf-8"?>
<!-- Generator: Adobe Illustrator 23.0.1, SVG Export Plug-In . SVG Version: 6.00 Build 0)  -->
<svg version="1.1" id="Layer_1" xmlns="http://www.w3.org/2000/svg" xmlns:xlink="http://www.w3.org/1999/xlink" x="0px" y="0px"
	 viewBox="0 0 100 94" style="enable-background:new 0 0 100 94;" xml:space="preserve">
<style type="text/css">
	.st0{fill:#38384F;}
	.st1{fill:#E04B4B;}
	.st2{fill:#F4A2A2;}
	.st3{fill:#AD1212;}
</style>
<g>
	<title>Untitled-4</title>
	<g>
		<g>
			<g>
				<path class="st0" d="M98,33.2c1.1,0,2-0.9,2-2V18.4c0-1.1-0.9-2-2-2H87.5c-1.7,0-3.2,1.1-3.7,2.7H56.3c0,0,0,0-0.1,0
					c-5.3-2.4-11.1-3.1-16.8-2l-15.8,3.1h-7.2c-0.1-2.1-1.8-3.8-3.9-3.8H2c-1.1,0-2,0.9-2,2V31c0,1.1,0.9,2,2,2s2-0.9,2-2V20.4h8.6
					v37H3.9V47c0-1.1-0.9-2-2-2s-2,0.9-2,2v12.4c0,1.1,0.9,2,2,2h10.5c2.2,0,3.9-1.8,3.9-3.9l0,0c0.9,0.3,1.7,0.7,2.5,1.2l0.9,0.7
					c0.2,1.6,0.9,3,2.2,4.1c1.2,1,2.6,1.4,3.9,1.4c0.1,0,0.3,0,0.4,0c0.2,1.6,1,3,2.2,4s2.6,1.4,3.9,1.4c0.1,0,0.3,0,0.4,0
					c0.2,1.6,1,3,2.2,4c1.1,0.9,2.5,1.4,3.9,1.4c0.1,0,0.3,0,0.4,0c0.2,1.5,0.9,3,2.2,4c1.1,0.9,2.5,1.4,3.9,1.4c0.2,0,0.4,0,0.6,0
					c1.7-0.2,3.1-1,4.2-2.2l1.6-1.9c0.5-0.6,0.8-1.2,1.1-1.8c0.9,0.5,2,0.8,3,0.8h0.1c1.7,0,3.3-0.7,4.5-2c0.6-0.7,1.1-1.4,1.4-2.2
					l0.7,0.7c1.3,1.2,2.9,1.8,4.5,1.8c1.7,0,3.4-0.7,4.6-2c0.7-0.7,1.2-1.6,1.5-2.5c0.9,0.4,1.9,0.7,2.9,0.7c1.7,0,3.4-0.7,4.6-2
					c1.2-1.2,1.9-2.9,1.8-4.6c0-1.7-0.7-3.3-2-4.5L79,58.1l4-2.2v1.7c0,2.2,1.8,3.9,3.9,3.9H98c1.1,0,2-0.9,2-2V46.4
					c0-1.1-0.9-2-2-2s-2,0.9-2,2v11h-8.6v-4.9l0,0V20.4H96v10.9C96.1,32.4,97,33.2,98,33.2z M29.3,58.2l-1.6,1.9
					c-0.8,1-2.3,1.1-3.2,0.3c-1-0.8-1.1-2.3-0.3-3.2l1.6-1.9c0.4-0.5,0.9-0.8,1.6-0.8c0.1,0,0.2,0,0.2,0c0.5,0,1,0.2,1.5,0.5
					C30,55.8,30.1,57.2,29.3,58.2z M35.9,63.6l-1.6,1.9c-0.8,1-2.3,1.1-3.2,0.3c-0.5-0.4-0.8-0.9-0.8-1.6c-0.1-0.6,0.1-1.2,0.5-1.7
					l1.6-1.9c0.4-0.5,0.9-0.8,1.6-0.8c0.1,0,0.2,0,0.2,0c0.5,0,1,0.2,1.5,0.5c0.5,0.4,0.8,0.9,0.8,1.6
					C36.5,62.5,36.3,63.1,35.9,63.6z M42.5,69l-1.6,1.9c-0.4,0.5-0.9,0.8-1.6,0.8c-0.6,0.1-1.2-0.1-1.7-0.5s-0.8-0.9-0.8-1.6
					c-0.1-0.6,0.1-1.2,0.5-1.7l1.6-1.9c0.5-0.6,1.1-0.8,1.8-0.8c0.5,0,1,0.2,1.5,0.5C43.2,66.6,43.3,68.1,42.5,69z M49.1,74.4
					l-1.6,1.9c-0.4,0.5-0.9,0.8-1.6,0.8c-0.6,0.1-1.2-0.1-1.7-0.5c-1-0.8-1.1-2.3-0.3-3.2l1.6-1.9c0.4-0.5,0.9-0.8,1.6-0.8
					c0.1,0,0.2,0,0.2,0c0.5,0,1,0.2,1.5,0.5c0.5,0.4,0.8,0.9,0.8,1.6C49.6,73.4,49.5,74,49.1,74.4z M78.3,65.7c-1,1-2.6,1-3.6,0.1
					l-6.5-6.3l0,0l-6.4-6.2c-0.8-0.8-2-0.7-2.8,0c-0.8,0.8-0.7,2,0,2.8L69.1,66c1,1,1,2.6,0.1,3.6c-1,1-2.6,1-3.6,0.1l-10.1-10
					c0,0,0,0-0.1-0.1l-4.9-4.7c-0.8-0.8-2-0.7-2.8,0c-0.8,0.8-0.7,2,0,2.8L58,67.5c1,1,1,2.6,0.1,3.6c-0.5,0.5-1.1,0.8-1.8,0.8
					s-1.3-0.2-1.8-0.7l-2.8-2.8c-0.1-0.1-0.1-0.1-0.2-0.2l-0.1-0.1c-1.3-1-2.8-1.5-4.4-1.4c-0.2-1.5-0.9-3-2.2-4s-2.8-1.5-4.4-1.4
					c-0.2-1.6-1-3-2.2-4s-2.8-1.5-4.4-1.4c-0.2-1.5-0.9-3-2.2-4c-1.3-1.1-2.9-1.5-4.5-1.4c-1.7,0.2-3.1,1-4.2,2.2l-1.7,2
					c-0.1,0.2-0.3,0.3-0.4,0.5c-1.3-0.9-2.8-1.5-4.4-1.8V24.2h7.4c0.1,0,0.3,0,0.4,0l16-3.1c2.7-0.5,5.4-0.6,8.1-0.2
					c-2,0.9-3.9,2.2-5.5,3.8L28,39.3c-2.7,2.7-2.7,7-0.1,9.7c1.3,1.4,3.1,2.1,5,2.1c1.2,0,2.3-0.3,3.4-0.9l15.5-8.8h5.4L78.3,62
					c0.5,0.5,0.8,1.1,0.8,1.8C79,64.5,78.7,65.2,78.3,65.7z M83.6,51.3L76.7,55l-14-13.6h1.4c1.1,0,2-0.9,2-2s-0.9-2-2-2H51.2
					c-0.3,0-0.7,0.1-1,0.3l-15.9,9c-1.2,0.7-2.7,0.5-3.7-0.5c-1.1-1.2-1.1-3.1,0-4.2l14.8-14.6c2.8-2.8,6.5-4.3,10.4-4.3h27.6v28.2
					H83.6z"/>
			</g>
		</g>
		<g>
			<g>
				<path class="st1" d="M99.4,37.5c-0.4-0.4-0.9-0.6-1.4-0.6s-1,0.2-1.4,0.6c-0.4,0.4-0.6,0.9-0.6,1.4s0.2,1,0.6,1.4
					s0.9,0.6,1.4,0.6s1-0.2,1.4-0.6c0.4-0.4,0.6-0.9,0.6-1.4S99.8,37.9,99.4,37.5z"/>
			</g>
		</g>
		<g>
			<g>
				<path class="st2" d="M3.3,37.5C3,37.2,2.5,37,2,37s-1,0.2-1.4,0.6C0.2,37.9,0,38.4,0,38.9s0.2,1,0.6,1.4
					c0.3,0.4,0.8,0.6,1.4,0.6s1-0.2,1.4-0.6C3.8,39.9,4,39.4,4,38.9C3.9,38.4,3.7,37.9,3.3,37.5z"/>
			</g>
		</g>
	</g>
</g>
<path class="st1" d="M50,0c-1.1,0-2,0.9-2,2v3.9c0,1.1,0.9,2,2,2s2-0.9,2-2V2C52,0.9,51.1,0,50,0z"/>
<path class="st3" d="M29.6,10.8l-1.9-3.4c-0.6-0.9-1.8-1.2-2.7-0.7c-0.9,0.5-1.3,1.6-0.8,2.6c0,0,0,0.1,0.1,0.1l1.9,3.3
	c0.4,0.6,1,1,1.7,1l1-0.2C29.8,13,30.1,11.8,29.6,10.8z"/>
<path class="st1" d="M13.5,71.1c-0.5-0.9-1.6-1.3-2.6-0.8c0,0-0.1,0-0.1,0.1l-3.4,1.9c-0.9,0.6-1.2,1.8-0.6,2.8
	c0.4,0.6,1,0.9,1.6,0.9c0.4,0,0.7-0.1,1-0.3l3.3-2C13.6,73.3,14,72.1,13.5,71.1C13.5,71.2,13.5,71.1,13.5,71.1z"/>
<g>
	<path class="st3" d="M28.9,78.9c-0.9-0.5-2.1-0.2-2.7,0.7L24.3,83c-0.5,0.9-0.2,2.1,0.7,2.7c0.3,0.2,0.7,0.2,1,0.2
		c0.7,0,1.3-0.3,1.7-0.9l1.9-3.4C30.1,80.7,29.8,79.5,28.9,78.9z"/>
	<path class="st3" d="M50,86.2c-1.1,0-1.9,0.8-2,1.9V92c0,1.1,0.9,2,2,2s2-0.9,2-2v-3.9C51.9,87,51.1,86.2,50,86.2z"/>
	<path class="st2" d="M75.7,83l-1.9-3.4c-0.6-0.9-1.8-1.2-2.7-0.7c-0.9,0.6-1.2,1.8-0.7,2.7l1.9,3.4c0.4,0.6,1,0.9,1.7,0.9
		c0.3,0,0.7,0,1-0.2C75.9,85.2,76.2,84,75.7,83z"/>
</g>
<path class="st1" d="M92.6,72.3l-3.4-1.9c-0.9-0.6-2.1-0.3-2.6,0.6l-0.1,0.1c-0.5,0.9-0.2,2.1,0.8,2.6l0,0l3.3,2
	c0.3,0.2,0.6,0.3,1,0.3c1.1,0,2-0.9,1.9-2.1C93.5,73.3,93.2,72.7,92.6,72.3z"/>
<path class="st3" d="M75,6.7c-0.9-0.5-2.1-0.2-2.7,0.7l-1.9,3.4c-0.5,0.9-0.2,2.1,0.7,2.7l1,0.2c0.7,0,1.3-0.4,1.7-1l1.9-3.3
	c0.6-0.9,0.3-2.1-0.6-2.6C75.1,6.8,75,6.8,75,6.7z"/>
</svg>
