<?xml version="1.0" encoding="utf-8"?>
<!-- Generator: Adobe Illustrator 21.0.2, SVG Export Plug-In . SVG Version: 6.00 Build 0)  -->
<svg version="1.1" id="Layer_1" xmlns="http://www.w3.org/2000/svg" xmlns:xlink="http://www.w3.org/1999/xlink" x="0px" y="0px"
	 viewBox="0 0 50 50" style="enable-background:new 0 0 50 50;" xml:space="preserve">
<style type="text/css">
	.st0{fill:#DC143C;}
	.st1{fill:#CCCCCC;}
	.st2{fill:#F2F2F2;}
</style>
<path class="st0" d="M29.2,4.5C29.2,4.5,29.2,4.6,29.2,4.5C29.2,4.6,29.2,4.5,29.2,4.5z"/>
<path class="st0" d="M45.7,22.9c-0.7-7.3-5.3-13.5-11.6-16.6C40.4,9.3,44.9,15.5,45.7,22.9z"/>
<path class="st0" d="M35,43.3c6.4-3.6,10.8-10.4,10.8-18.3l0,0C45.8,32.9,41.4,39.7,35,43.3z"/>
<path class="st1" d="M25,0C11.2,0,0,11.2,0,25s11.2,25,25,25s25-11.2,25-25S38.8,0,25,0z M35,43.3c-3,1.7-6.4,2.6-10,2.6
	c-5.4,0-10.2-2.1-13.9-5.4c-2.6-2.4-4.6-5.4-5.8-8.9c-0.1-0.4-0.2-0.8-0.3-1.2c-0.5-1.7-0.7-3.6-0.7-5.4l0,0c0-0.7,0-1.4,0.1-2.1
	c0.1-0.9,0.2-1.7,0.4-2.5c0.2-1,0.5-2,0.9-3c1.1-2.7,2.6-5.1,4.6-7.1c3.8-3.8,9-6.1,14.7-6.1c1.4,0,2.8,0.2,4.2,0.4c0,0,0,0,0.1,0
	c1.7,0.4,3.3,0.9,4.8,1.7c6.3,3.1,10.9,9.3,11.6,16.6c0.1,0.7,0.1,1.4,0.1,2.1l0,0C45.8,32.9,41.4,39.7,35,43.3z"/>
<path class="st2" d="M45.8,25c0-0.7,0-1.4-0.1-2.1c-0.7-7.3-5.3-13.5-11.6-16.6c-1.5-0.7-3.1-1.3-4.8-1.7c0,0,0,0-0.1,0
	c-1.3-0.3-2.7-0.4-4.2-0.4c-5.7,0-10.9,2.3-14.7,6.1c-2,2-3.6,4.4-4.6,7.1c-0.4,1-0.7,2-0.9,3c-0.2,0.8-0.3,1.6-0.4,2.5
	c-0.1,0.7-0.1,1.4-0.1,2.1c0,1.9,0.3,3.7,0.7,5.4c0.1,0.4,0.2,0.8,0.3,1.2c1.1,3.4,3.2,6.5,5.8,8.9c3.7,3.3,8.6,5.4,13.9,5.4
	c3.6,0,7-0.9,10-2.6C41.4,39.7,45.8,32.9,45.8,25z"/>
<path class="st2" d="M29.2,4.5c-1.4-0.3-2.8-0.4-4.2-0.4c-5.7,0-10.9,2.3-14.7,6.1c3.8-3.8,8.9-6.1,14.7-6.1
	C26.4,4.1,27.8,4.3,29.2,4.5z"/>
<path class="st2" d="M45.8,25c0-0.7,0-1.4-0.1-2.1C45.7,23.6,45.8,24.3,45.8,25L45.8,25z"/>
<path class="st2" d="M11.1,40.5c3.7,3.3,8.6,5.4,13.9,5.4c3.6,0,7-0.9,10-2.6c-3,1.7-6.4,2.6-10,2.6C19.6,45.9,14.8,43.8,11.1,40.5z
	"/>
<path class="st2" d="M29.3,4.6c1.7,0.4,3.3,0.9,4.8,1.7C32.6,5.5,31,4.9,29.3,4.6z"/>
<polygon class="st0" points="25,11.4 12.5,19.3 37.4,19.3 "/>
<path class="st0" d="M25.7,26.6C25.7,26.6,25.6,26.6,25.7,26.6C25.6,26.7,25.6,26.7,25.7,26.6c-0.2,0.1-0.3,0.1-0.4,0.1c0,0,0,0,0,0
	c-0.1,0-0.2,0-0.3,0l0,0l0,0c-0.1,0-0.2,0-0.3,0c0,0,0,0,0,0c-0.1,0-0.2-0.1-0.3-0.1c0,0,0,0,0,0c0,0,0,0,0,0l-11.8-7.4
	c0,0.3,0,0.3,0,0.4v11.8c0,1.2,1,2.2,2.2,2.2h20.4c1.2,0,2.2-1,2.2-2.2l0,0V19.6c0-0.1,0-0.2,0-0.4L25.7,26.6z"/>
</svg>
