<svg id="Layer_1" data-name="Layer 1" xmlns="http://www.w3.org/2000/svg" viewBox="0 0 171.2 37.6"><defs><style>.cls-1{fill:#ddd;}.cls-2{fill:#fff;}</style></defs><title>gray-tu-logo</title><polygon class="cls-1" points="164.7 37.5 166.2 37.5 166.2 34 169.7 28.8 167.9 28.8 165.5 32.7 163 28.8 161.2 28.8 164.7 34.1 164.7 37.5 164.7 37.5"/><polygon class="cls-1" points="32.5 37.6 32.5 0 0 0 0 37.6 32.5 37.6 32.5 37.6"/><polygon class="cls-2" points="27.6 2.7 4.9 2.7 2.5 2.7 2.5 4.9 2.5 13.9 4.9 13.9 4.9 4.9 27.6 4.9 27.6 13.7 29.9 13.7 29.9 4.9 29.9 2.7 27.6 2.7 27.6 2.7"/><polygon class="cls-2" points="8.6 27.6 8.6 29.8 12.6 29.8 14.9 29.8 14.9 27.6 14.9 10 14.9 7.7 12.6 7.7 9.9 7.7 7.5 7.7 7.5 10 7.5 13.8 9.9 13.8 9.9 10 12.6 10 12.6 27.6 8.6 27.6 8.6 27.6"/><polygon class="cls-2" points="20 7.7 17.6 7.7 17.6 10 17.6 27.5 17.6 29.8 20 29.8 23.9 29.8 23.9 27.5 20 27.5 20 10 22.7 10 22.7 13.8 25 13.8 25 10 25 7.7 22.7 7.7 20 7.7 20 7.7"/><polygon class="cls-2" points="8.6 34.7 23.9 34.7 23.9 32.5 8.6 32.5 8.6 34.7 8.6 34.7"/><path class="cls-1" d="M59.4,6.7C59.2,4.5,59,1.5,59,0h-.8a2,2,0,0,1-2,.9H42.1c-1,0-1.5-.1-2-.9h-.8c-.1,1.9-.3,4.3-.5,6.8H40a11.7,11.7,0,0,1,1.4-3.5c.5-.6,1.2-1,4.1-1h1.6V19.4c0,2.9-.4,3.2-3.4,3.4v1.1h11V22.8c-3.2-.2-3.5-.5-3.5-3.4V2.3h1.9c2.3,0,3.1.3,3.7,1a8.5,8.5,0,0,1,1.4,3.4ZM79,18a14.1,14.1,0,0,1-1.9,3.4c-.8.9-2,1.1-4.1,1.1s-2.8,0-3.4-.4-.9-1.2-.9-2.9V12.9h2.8c3,0,3.4.2,3.9,2.7h1.1v-7H75.4c-.5,2.5-.8,2.7-4,2.7H68.7V3.5c0-1.1.1-1.2,1.4-1.2h2.1c2.2,0,3.1.3,3.7,1a8.1,8.1,0,0,1,1.3,3l1.2-.2c-.1-2-.3-4.5-.4-5.2H61.7V2c2.6.2,2.9.4,2.9,3.5V19.3c0,3-.3,3.3-3.4,3.5v1.1H78.9c.3-1,1.1-4.3,1.3-5.7Zm32.2,5.9V22.8c-2.9-.3-3-.5-3.1-4l-.4-13.1c0-3.2.1-3.4,3.1-3.7V.9H104L96.6,17.2,89.3.9H82.6V2c3.1.3,3.3.7,3,5l-.5,7.1a49.5,49.5,0,0,1-.8,6.6c-.2,1.3-.9,1.9-2.9,2.1v1.1h8.4V22.8c-2.3-.2-3.1-.5-3.2-2.2a36.2,36.2,0,0,1,.1-5.7l.4-9.6h.2l7.4,18.4h.9l8.1-18.8h.2V18.8c0,3.5-.2,3.7-2.9,4v1.1Zm2.5-23V2c2.5.3,2.8.5,2.8,3.5V19.3c0,3-.3,3.3-3,3.5v1.1H124V22.8c-3.1-.2-3.4-.5-3.4-3.5V14.2l2.5.6h1.5c3.7-.5,7.2-2.7,7.2-7.3a6,6,0,0,0-2.5-5.2c-1.5-1-3.5-1.4-6.2-1.4Zm6.9,3c0-.7.1-1.1.4-1.3a2,2,0,0,1,1.5-.4c2.4,0,4.8,1.4,4.8,5.4s-2.9,5.7-4.5,5.7a5.4,5.4,0,0,1-2.2-.4ZM150,17.8a10.4,10.4,0,0,1-1.9,3.6c-.8.9-2.1,1.1-3.8,1.1a7,7,0,0,1-2.9-.3c-.7-.4-.8-1-.8-2.8V5.5c0-3,.3-3.2,3-3.5V.9H133.4V2c2.8.3,3.1.5,3.1,3.5V19.3c0,3-.4,3.3-3.4,3.5v1.1h16.8c.3-1,1-4.4,1.3-5.8l-1.2-.3Zm20,.2a14.1,14.1,0,0,1-1.9,3.4c-.8.9-2,1.1-4.1,1.1s-2.8,0-3.4-.4-.9-1.2-.9-2.9V12.9h2.8c3,0,3.4.2,3.9,2.7h1.2v-7h-1.2c-.5,2.5-.8,2.7-4,2.7h-2.7V3.5c0-1.1.1-1.2,1.4-1.2h2.1c2.2,0,3.1.3,3.7,1a8.1,8.1,0,0,1,1.3,3l1.2-.2c-.1-2-.3-4.5-.4-5.2H152.7V2c2.6.2,2.9.4,2.9,3.5V19.3c0,3-.3,3.3-3.4,3.5v1.1h17.7c.3-1,1.1-4.3,1.3-5.7Z"/><path class="cls-1" d="M47.8,37.6c2.3,0,3.8-1.3,3.8-3.9V28.8H50v5c0,1.6-.8,2.4-2.1,2.4a2.2,2.2,0,0,1-2.2-2.5V28.8H44.1v5a3.4,3.4,0,0,0,3,3.8Z"/><polygon class="cls-1" points="59.1 37.4 60.6 37.4 60.6 31.3 65.4 37.4 66.7 37.4 66.7 28.8 65.2 28.8 65.2 34.8 60.5 28.8 59.1 28.8 59.1 37.4 59.1 37.4"/><polygon class="cls-1" points="74.4 37.4 75.9 37.4 75.9 28.8 74.4 28.8 74.4 37.4 74.4 37.4"/><polygon class="cls-1" points="86.2 37.5 87.6 37.5 91.2 28.8 89.5 28.8 86.9 35.4 84.3 28.8 82.6 28.8 86.2 37.5 86.2 37.5"/><polygon class="cls-1" points="97.8 37.4 104.3 37.4 104.3 36.1 99.3 36.1 99.3 33.7 103.7 33.7 103.7 32.4 99.3 32.4 99.3 30.1 104.2 30.1 104.2 28.8 97.8 28.8 97.8 37.4 97.8 37.4"/><path class="cls-1" d="M111.8,37.4h1.5v-3h1.9l2.2,3h1.8l-2.4-3.2a2.7,2.7,0,0,0,2.1-2.7h0a3.2,3.2,0,0,0-.7-1.9,3.8,3.8,0,0,0-2.5-.8h-3.9Zm1.5-4.3V30.2h2.3c1.1,0,1.7.5,1.7,1.4h0c0,.9-.6,1.5-1.7,1.5Z"/><path class="cls-1" d="M129.2,37.6c1.9,0,3.1-1,3.1-2.6h0c0-1.5-.9-2.1-2.7-2.6s-2.1-.7-2.1-1.3h0c0-.5.5-1,1.4-1a3.6,3.6,0,0,1,2.4.9l.8-1.2a4.6,4.6,0,0,0-3.2-1c-1.7,0-2.9,1-2.9,2.5h0c0,1.6,1,2.1,2.9,2.6s1.9.7,1.9,1.3h0c0,.7-.6,1.1-1.5,1.1a4.3,4.3,0,0,1-2.8-1.1l-.9,1A5.4,5.4,0,0,0,129.2,37.6Z"/><polygon class="cls-1" points="140 37.4 141.5 37.4 141.5 28.8 140 28.8 140 37.4 140 37.4"/><polygon class="cls-1" points="151.4 37.4 153 37.4 153 30.2 155.7 30.2 155.7 28.8 148.7 28.8 148.7 30.2 151.4 30.2 151.4 37.4 151.4 37.4"/></svg>