<?xml version="1.0" encoding="utf-8"?>
<!-- Generator: Adobe Illustrator 21.0.2, SVG Export Plug-In . SVG Version: 6.00 Build 0)  -->
<svg version="1.1" id="Layer_1" xmlns="http://www.w3.org/2000/svg" xmlns:xlink="http://www.w3.org/1999/xlink" x="0px" y="0px"
	 viewBox="0 0 50 50" style="enable-background:new 0 0 50 50;" xml:space="preserve">
<style type="text/css">
	.st0{fill:#DC143C;}
	.st1{fill:#FFFFFF;}
	.st2{fill:#F2F2F2;}
	.st3{fill:#CCCCCC;}
</style>
<g>
	<path class="st2" d="M25,4.11C13.52,4.11,4.22,13.46,4.22,25S13.52,45.89,25,45.89c11.48,0,20.78-9.35,20.78-20.89
		S36.48,4.11,25,4.11z M32.07,32.33c-6.94,5.6-13.76,1.66-14.41,0L17.2,27.8l7.92,3.55l7.43-3.83L32.07,32.33z M36.14,35.02
		l0.75-12.85l0.04-0.63l0.04,0.59l0.88,12.89H36.14z M37.35,21.1l-4.88,2.52l-7.25,3.74l-8.07-3.61l-4.54-2.04l-0.98-0.44
		l13.75-5.76l13,5.07L37.35,21.1z"/>
	<path class="st3" d="M25,0C11.21,0,0,11.21,0,25s11.21,25,25,25c13.79,0,25-11.21,25-25S38.79,0,25,0z M25,45.89
		C13.52,45.89,4.22,36.54,4.22,25S13.52,4.11,25,4.11c11.48,0,20.78,9.35,20.78,20.89S36.48,45.89,25,45.89z"/>
	<path class="st0" d="M17.2,27.8l0.46,4.52c0.66,1.66,7.47,5.6,14.41,0l0.48-4.81l-7.43,3.83L17.2,27.8z"/>
	<polygon class="st0" points="36.92,21.55 36.89,22.18 36.14,35.02 37.84,35.02 36.96,22.14 	"/>
	<polygon class="st0" points="11.63,21.27 12.6,21.71 17.15,23.74 25.22,27.36 32.47,23.62 37.35,21.1 38.37,20.58 25.38,15.51 	"/>
</g>
</svg>
