<?xml version="1.0" encoding="utf-8"?>
<!-- Generator: Adobe Illustrator 23.0.1, SVG Export Plug-In . SVG Version: 6.00 Build 0)  -->
<svg version="1.1" xmlns="http://www.w3.org/2000/svg" xmlns:xlink="http://www.w3.org/1999/xlink" x="0px" y="0px"
	 viewBox="0 0 1200 250" style="enable-background:new 0 0 1200 250;" xml:space="preserve">
<style type="text/css">
	.st0{fill:#28283D;}
	.st1{opacity:0.25;}
	.st2{clip-path:url(#SVGID_2_);}
	.st3{fill:none;stroke:#BA1C1C;stroke-miterlimit:10;}
</style>
<g id="Layer_1">
	<title>Untitled-4</title>
	<g>
		<g>
			<rect y="-0.3" class="st0" width="1200" height="250.9"/>
			<g class="st1">
				<g>
					<defs>
						<rect id="SVGID_1_" y="-1.1" width="1200" height="252"/>
					</defs>
					<clipPath id="SVGID_2_">
						<use xlink:href="#SVGID_1_"  style="overflow:visible;"/>
					</clipPath>
					<g class="st2">
						
							<ellipse transform="matrix(0.9731 -0.2303 0.2303 0.9731 3.9506 155.3044)" class="st3" cx="667.2" cy="60.7" rx="205.3" ry="49.8"/>
						
							<ellipse transform="matrix(0.9731 -0.2303 0.2303 0.9731 4.1759 155.1958)" class="st3" cx="666.8" cy="59.7" rx="205.3" ry="50.6"/>
						
							<ellipse transform="matrix(0.9731 -0.2303 0.2303 0.9731 4.1759 155.1958)" class="st3" cx="666.8" cy="59.7" rx="205.3" ry="50.6"/>
						
							<ellipse transform="matrix(0.9735 -0.2286 0.2286 0.9735 4.1971 153.9076)" class="st3" cx="666.3" cy="58.8" rx="205.3" ry="52.4"/>
						
							<ellipse transform="matrix(0.9735 -0.2286 0.2286 0.9735 4.4237 153.8235)" class="st3" cx="666.1" cy="57.8" rx="205.3" ry="53.2"/>
						
							<ellipse transform="matrix(0.9735 -0.2287 0.2287 0.9735 4.6696 153.7096)" class="st3" cx="665.7" cy="56.7" rx="205.3" ry="54.1"/>
						
							<ellipse transform="matrix(0.9735 -0.2287 0.2287 0.9735 4.8963 153.6258)" class="st3" cx="665.4" cy="55.7" rx="205.3" ry="54.9"/>
						
							<ellipse transform="matrix(0.9735 -0.2287 0.2287 0.9735 5.1205 153.5199)" class="st3" cx="665" cy="54.7" rx="205.3" ry="55.8"/>
						
							<ellipse transform="matrix(0.9739 -0.227 0.227 0.9739 4.9136 152.3448)" class="st3" cx="664.9" cy="54.8" rx="205.3" ry="56.7"/>
						
							<ellipse transform="matrix(0.9739 -0.227 0.227 0.9739 5.1363 152.2397)" class="st3" cx="664.5" cy="53.8" rx="205.3" ry="57.5"/>
						
							<ellipse transform="matrix(0.9739 -0.227 0.227 0.9739 5.3618 152.1579)" class="st3" cx="664.3" cy="52.8" rx="205.4" ry="58.4"/>
						
							<ellipse transform="matrix(0.9739 -0.227 0.227 0.9739 5.8076 151.949)" class="st3" cx="663.5" cy="50.7" rx="205.4" ry="60.2"/>
						
							<ellipse transform="matrix(0.9739 -0.227 0.227 0.9739 6.1317 152.0857)" class="st3" cx="664.3" cy="49.4" rx="206.4" ry="61.1"/>
						
							<ellipse transform="matrix(0.9743 -0.2253 0.2253 0.9743 5.9913 151.1116)" class="st3" cx="665.1" cy="49.3" rx="207.4" ry="61.9"/>
						
							<ellipse transform="matrix(0.9743 -0.2253 0.2253 0.9743 6.2659 151.2354)" class="st3" cx="665.7" cy="48.2" rx="208.5" ry="62.8"/>
						
							<ellipse transform="matrix(0.9743 -0.2253 0.2253 0.9743 6.6174 151.6)" class="st3" cx="667.5" cy="46.8" rx="210.6" ry="63.6"/>
						
							<ellipse transform="matrix(0.9743 -0.2253 0.2253 0.9743 7.1581 151.6115)" class="st3" cx="667.8" cy="44.4" rx="211.6" ry="65.4"/>
						
							<ellipse transform="matrix(0.9743 -0.2253 0.2253 0.9743 7.3823 151.5309)" class="st3" cx="667.5" cy="43.4" rx="211.6" ry="66.2"/>
						
							<ellipse transform="matrix(0.9747 -0.2236 0.2236 0.9747 7.5262 150.6757)" class="st3" cx="669" cy="42.1" rx="213.7" ry="67.9"/>
						
							<ellipse transform="matrix(0.9747 -0.2236 0.2236 0.9747 7.8199 150.792)" class="st3" cx="669.6" cy="40.9" rx="214.8" ry="68.8"/>
						
							<ellipse transform="matrix(0.9747 -0.2236 0.2236 0.9747 7.8719 151.0168)" class="st3" cx="670.6" cy="40.8" rx="215.8" ry="68.8"/>
						
							<ellipse transform="matrix(0.9747 -0.2237 0.2237 0.9747 8.1682 151.1555)" class="st3" cx="671.4" cy="39.5" rx="216.9" ry="69.7"/>
						
							<ellipse transform="matrix(0.9747 -0.2237 0.2237 0.9747 8.705 151.1679)" class="st3" cx="671.6" cy="37.2" rx="217.9" ry="71.4"/>
						
							<ellipse transform="matrix(0.9747 -0.2237 0.2237 0.9747 8.9773 151.2907)" class="st3" cx="672.3" cy="36" rx="219" ry="72.3"/>
						
							<ellipse transform="matrix(0.9747 -0.2237 0.2237 0.9747 8.9773 151.2907)" class="st3" cx="672.3" cy="36" rx="219" ry="72.3"/>
						
							<ellipse transform="matrix(0.9747 -0.2237 0.2237 0.9747 9.3331 151.6757)" class="st3" cx="674.2" cy="34.6" rx="221" ry="73.2"/>
						
							<ellipse transform="matrix(0.9747 -0.2237 0.2237 0.9747 9.627 151.792)" class="st3" cx="674.8" cy="33.4" rx="222.1" ry="74.1"/>
						
							<ellipse transform="matrix(0.9751 -0.222 0.222 0.9751 9.4059 150.5913)" class="st3" cx="674.6" cy="33.5" rx="222.1" ry="74.9"/>
						
							<ellipse transform="matrix(0.975 -0.222 0.222 0.975 10.0207 151.0758)" class="st3" cx="677.1" cy="31" rx="225.2" ry="76.6"/>
						
							<ellipse transform="matrix(0.975 -0.222 0.222 0.975 10.3631 151.415)" class="st3" cx="678.8" cy="29.6" rx="227.3" ry="77.5"/>
						
							<ellipse transform="matrix(0.9752 -0.2212 0.2212 0.9752 11.0409 152.2034)" class="st3" cx="685.2" cy="26.8" rx="232.5" ry="79.6"/>
						
							<ellipse transform="matrix(0.9752 -0.2212 0.2212 0.9752 11.0409 152.2034)" class="st3" cx="685.2" cy="26.8" rx="232.5" ry="79.6"/>
						
							<ellipse transform="matrix(0.975 -0.222 0.222 0.975 11.4695 152.6687)" class="st3" cx="684.9" cy="25.3" rx="234.6" ry="80.1"/>
						
							<ellipse transform="matrix(0.9751 -0.222 0.222 0.9751 11.6933 153.5487)" class="st3" cx="689" cy="24.8" rx="238.8" ry="80.1"/>
						
							<ellipse transform="matrix(0.9747 -0.2237 0.2237 0.9747 12.3666 155.3494)" class="st3" cx="691.9" cy="23.1" rx="241.9" ry="80.1"/>
						
							<ellipse transform="matrix(0.9747 -0.2237 0.2237 0.9747 13.0605 156.0527)" class="st3" cx="695.3" cy="20.4" rx="246.1" ry="81.8"/>
						
							<ellipse transform="matrix(0.9747 -0.2237 0.2237 0.9747 14.5242 157.6534)" class="st3" cx="703.1" cy="14.7" rx="255.4" ry="85.3"/>
						
							<ellipse transform="matrix(0.9747 -0.2237 0.2237 0.9747 14.7518 158.5405)" class="st3" cx="707.2" cy="14.2" rx="259.6" ry="85.3"/>
						
							<ellipse transform="matrix(0.9747 -0.2237 0.2237 0.9747 15.5786 159.7085)" class="st3" cx="712.8" cy="11.1" rx="265.8" ry="87.1"/>
						
							<ellipse transform="matrix(0.9747 -0.2236 0.2236 0.9747 15.9401 161.0653)" class="st3" cx="719" cy="10.2" rx="272.1" ry="87.1"/>
						
							<ellipse transform="matrix(0.9743 -0.2253 0.2253 0.9743 16.8054 163.3011)" class="st3" cx="723.8" cy="8" rx="277.3" ry="87.1"/>
						
							<ellipse transform="matrix(0.9743 -0.2253 0.2253 0.9743 17.9159 164.5984)" class="st3" cx="730" cy="3.8" rx="284.6" ry="89.7"/>
						
							<ellipse transform="matrix(0.9743 -0.2253 0.2253 0.9743 18.3922 165.3864)" class="st3" cx="733.7" cy="2.1" rx="288.7" ry="90.5"/>
						
							<ellipse transform="matrix(0.9743 -0.2253 0.2253 0.9743 18.527 165.854)" class="st3" cx="735.8" cy="1.8" rx="290.8" ry="90.5"/>
						
							<ellipse transform="matrix(0.9743 -0.2253 0.2253 0.9743 19.1308 167.089)" class="st3" cx="741.6" cy="-0.3" rx="297.1" ry="91.4"/>
						
							<ellipse transform="matrix(0.9743 -0.2253 0.2253 0.9743 19.3413 167.7813)" class="st3" cx="744.7" cy="-0.8" rx="300.2" ry="91.4"/>
						
							<ellipse transform="matrix(0.9743 -0.2253 0.2253 0.9743 19.6903 168.123)" class="st3" cx="746.4" cy="-2.2" rx="302.3" ry="92.2"/>
						
							<ellipse transform="matrix(0.9743 -0.2253 0.2253 0.9743 20.3912 168.8304)" class="st3" cx="749.8" cy="-4.9" rx="306.4" ry="94"/>
						
							<ellipse transform="matrix(0.9743 -0.2253 0.2253 0.9743 20.6874 168.945)" class="st3" cx="750.5" cy="-6.2" rx="307.5" ry="94.8"/>
						
							<ellipse transform="matrix(0.9743 -0.2253 0.2253 0.9743 21.0895 169.5144)" class="st3" cx="753.2" cy="-7.6" rx="310.6" ry="95.7"/>
						
							<ellipse transform="matrix(0.9743 -0.2253 0.2253 0.9743 21.1714 169.7552)" class="st3" cx="754.3" cy="-7.9" rx="311.7" ry="95.7"/>
						
							<ellipse transform="matrix(0.9743 -0.2253 0.2253 0.9743 21.5733 170.324)" class="st3" cx="757" cy="-9.3" rx="314.8" ry="96.5"/>
						
							<ellipse transform="matrix(0.9743 -0.2253 0.2253 0.9743 22.2743 171.0311)" class="st3" cx="760.4" cy="-12.1" rx="319" ry="98.4"/>
						
							<ellipse transform="matrix(0.9743 -0.2253 0.2253 0.9743 22.2743 171.0311)" class="st3" cx="760.4" cy="-12.1" rx="319" ry="98.4"/>
						
							<ellipse transform="matrix(0.9743 -0.2253 0.2253 0.9743 22.5705 171.1458)" class="st3" cx="761" cy="-13.3" rx="320" ry="99.2"/>
						
							<ellipse transform="matrix(0.9743 -0.2253 0.2253 0.9743 22.9272 171.5094)" class="st3" cx="762.8" cy="-14.7" rx="322.1" ry="100.1"/>
						
							<ellipse transform="matrix(0.9743 -0.2253 0.2253 0.9743 23.0545 171.956)" class="st3" cx="764.8" cy="-15" rx="324.2" ry="100.1"/>
						
							<ellipse transform="matrix(0.9743 -0.2253 0.2253 0.9743 23.1818 172.4028)" class="st3" cx="766.9" cy="-15.4" rx="326.2" ry="100.1"/>
						
							<ellipse transform="matrix(0.9743 -0.2253 0.2253 0.9743 23.4375 173.3013)" class="st3" cx="771" cy="-16" rx="330.4" ry="100.1"/>
						
							<ellipse transform="matrix(0.9743 -0.2253 0.2253 0.9743 23.5724 173.7695)" class="st3" cx="773.1" cy="-16.4" rx="332.5" ry="100.1"/>
						
							<ellipse transform="matrix(0.9743 -0.2253 0.2253 0.9743 23.7969 174.4335)" class="st3" cx="776.2" cy="-17" rx="335.6" ry="100.1"/>
						
							<ellipse transform="matrix(0.9743 -0.2253 0.2253 0.9743 23.7969 174.4335)" class="st3" cx="776.2" cy="-17" rx="335.6" ry="100.1"/>
						
							<ellipse transform="matrix(0.9739 -0.227 0.227 0.9739 24.5566 176.0979)" class="st3" cx="777.9" cy="-18.7" rx="337.7" ry="100.1"/>
						
							<ellipse transform="matrix(0.9739 -0.227 0.227 0.9739 24.6104 176.3267)" class="st3" cx="778.9" cy="-18.8" rx="338.7" ry="100.1"/>
						
							<ellipse transform="matrix(0.9739 -0.227 0.227 0.9739 24.8243 177.0243)" class="st3" cx="782.1" cy="-19.4" rx="341.9" ry="100.1"/>
						
							<ellipse transform="matrix(0.9739 -0.227 0.227 0.9739 25.0522 177.693)" class="st3" cx="785.1" cy="-20.1" rx="345" ry="100.1"/>
						
							<ellipse transform="matrix(0.9739 -0.227 0.227 0.9739 25.3929 178.8184)" class="st3" cx="790.2" cy="-21" rx="350.2" ry="100.1"/>
						
							<ellipse transform="matrix(0.9739 -0.227 0.227 0.9739 25.5992 179.495)" class="st3" cx="793.3" cy="-21.6" rx="353.3" ry="100.1"/>
						
							<ellipse transform="matrix(0.9735 -0.2287 0.2287 0.9735 26.2745 182.2976)" class="st3" cx="799.8" cy="-22.2" rx="359.6" ry="98.4"/>
						
							<ellipse transform="matrix(0.9735 -0.2287 0.2287 0.9735 26.1186 183.4223)" class="st3" cx="804.6" cy="-21" rx="363.8" ry="96.6"/>
						
							<ellipse transform="matrix(0.9735 -0.2287 0.2287 0.9735 26.1186 183.4223)" class="st3" cx="804.6" cy="-21" rx="363.8" ry="96.6"/>
						
							<ellipse transform="matrix(0.9735 -0.2286 0.2286 0.9735 26.4108 185.0913)" class="st3" cx="812" cy="-21.4" rx="371.1" ry="95.7"/>
						
							<ellipse transform="matrix(0.9731 -0.2303 0.2303 0.9731 26.0522 186.8685)" class="st3" cx="813.4" cy="-18.2" rx="371" ry="91.4"/>
						
							<ellipse transform="matrix(0.9731 -0.2303 0.2303 0.9731 25.7484 188.854)" class="st3" cx="821.9" cy="-15.9" rx="378.3" ry="88"/>
						
							<ellipse transform="matrix(0.9727 -0.232 0.232 0.9727 25.4882 192.9753)" class="st3" cx="833.3" cy="-11.9" rx="387.7" ry="81"/>
						
							<ellipse transform="matrix(0.9727 -0.232 0.232 0.9727 25.4882 192.9753)" class="st3" cx="833.3" cy="-11.9" rx="387.7" ry="81"/>
						
							<ellipse transform="matrix(0.9727 -0.232 0.232 0.9727 25.0214 193.7674)" class="st3" cx="836.4" cy="-9.5" rx="389.7" ry="78.4"/>
						
							<ellipse transform="matrix(0.9723 -0.2337 0.2337 0.9723 24.9385 196.2234)" class="st3" cx="840.6" cy="-7.1" rx="392.8" ry="74.1"/>
						
							<ellipse transform="matrix(0.9723 -0.2336 0.2336 0.9723 24.5718 197.2248)" class="st3" cx="844.7" cy="-5.1" rx="396" ry="71.4"/>
						
							<ellipse transform="matrix(0.9723 -0.2336 0.2336 0.9723 24.1971 198.2048)" class="st3" cx="848.7" cy="-3" rx="399.1" ry="68.8"/>
						
							<ellipse transform="matrix(0.9723 -0.2336 0.2336 0.9723 23.4884 198.8551)" class="st3" cx="851.1" cy="0.3" rx="400.1" ry="65.4"/>
						
							<ellipse transform="matrix(0.9723 -0.2336 0.2336 0.9723 23.305 198.9401)" class="st3" cx="851.4" cy="1.1" rx="400.1" ry="64.5"/>
						
							<ellipse transform="matrix(0.9719 -0.2353 0.2353 0.9719 23.0984 201.7862)" class="st3" cx="857" cy="4.1" rx="404.3" ry="59.4"/>
						
							<ellipse transform="matrix(0.9719 -0.2353 0.2353 0.9719 22.6919 201.9922)" class="st3" cx="857.7" cy="5.9" rx="404.3" ry="57.5"/>
						
							<ellipse transform="matrix(0.9719 -0.2353 0.2353 0.9719 21.9693 202.6049)" class="st3" cx="859.9" cy="9.2" rx="405.3" ry="54.1"/>
						
							<ellipse transform="matrix(0.9719 -0.2353 0.2353 0.9719 21.1906 203.0042)" class="st3" cx="861.3" cy="12.7" rx="405.3" ry="50.7"/>
						
							<ellipse transform="matrix(0.9719 -0.2353 0.2353 0.9719 20.3869 203.3885)" class="st3" cx="862.5" cy="16.3" rx="405.3" ry="47.2"/>
						
							<ellipse transform="matrix(0.9719 -0.2353 0.2353 0.9719 19.2485 203.9847)" class="st3" cx="864.5" cy="21.3" rx="405.3" ry="41.9"/>
						
							<ellipse transform="matrix(0.9715 -0.237 0.237 0.9715 18.5301 206.0345)" class="st3" cx="866.3" cy="25.9" rx="405.3" ry="35.9"/>
						
							<ellipse transform="matrix(0.9715 -0.237 0.237 0.9715 17.3523 206.6023)" class="st3" cx="868.1" cy="31.1" rx="405.2" ry="30.6"/>
						
							<ellipse transform="matrix(0.9715 -0.237 0.237 0.9715 16.392 207.1021)" class="st3" cx="869.7" cy="35.4" rx="405.2" ry="26.3"/>
						
							<ellipse transform="matrix(0.9715 -0.237 0.237 0.9715 14.3322 207.0516)" class="st3" cx="868.5" cy="43.9" rx="401.1" ry="18.5"/>
						
							<ellipse transform="matrix(0.9715 -0.2369 0.2369 0.9715 13.4649 207.2057)" class="st3" cx="868.8" cy="47.6" rx="400" ry="15"/>
						
							<ellipse transform="matrix(0.9715 -0.2369 0.2369 0.9715 11.893 206.0804)" class="st3" cx="863.3" cy="53.6" rx="392.7" ry="10.6"/>
						<path class="st3" d="M1240.3-27.9L862.8,64.2l-377.4,92.2l377.4-92.2L1240.3-27.9z"/>
						<path class="st3" d="M1236.2-26.9L860.8,64.7l-375.4,91.7l375.4-91.7L1236.2-26.9z"/>
						<path class="st3" d="M1191.7-2.4c1.8,4.7-126.5,36.3-330.4,86.1S490.4,170,488.6,165.3c-1.8-4.7,162.2-49.2,366.1-99
							S1189.9-7.2,1191.7-2.4z"/>
						<path class="st3" d="M1178.3,15.1c4.5,12-117.4,48.4-316.4,97S498,190.4,493.5,178.4c-4.5-12,153.2-61.3,352.1-109.9
							S1173.8,3,1178.3,15.1z"/>
						
							<ellipse transform="matrix(0.9715 -0.237 0.237 0.9715 0.3396 203.194)" class="st3" cx="845.4" cy="100.2" rx="359.4" ry="31.2"/>
						
							<ellipse transform="matrix(0.9719 -0.2353 0.2353 0.9719 -5.0895 196.4137)" class="st3" cx="820.5" cy="119.5" rx="329.2" ry="43.7"/>
						
							<ellipse transform="matrix(0.9723 -0.2336 0.2336 0.9723 -7.3418 194.1072)" class="st3" cx="815.7" cy="128" rx="321.9" ry="50.1"/>
						
							<ellipse transform="matrix(0.9723 -0.2336 0.2336 0.9723 -8.7374 193.2808)" class="st3" cx="811.4" cy="133.5" rx="315.7" ry="55"/>
						
							<ellipse transform="matrix(0.9723 -0.2336 0.2336 0.9723 -9.4808 191.1858)" class="st3" cx="802.2" cy="135.6" rx="306.3" ry="55"/>
						
							<ellipse transform="matrix(0.9723 -0.2337 0.2337 0.9723 -10.1925 189.1106)" class="st3" cx="793.1" cy="137.6" rx="296.9" ry="55"/>
						
							<ellipse transform="matrix(0.9723 -0.2337 0.2337 0.9723 -10.6759 187.7536)" class="st3" cx="787.1" cy="138.9" rx="290.7" ry="55"/>
						
							<ellipse transform="matrix(0.9727 -0.232 0.232 0.9727 -13.2603 183.8747)" class="st3" cx="775.1" cy="148.3" rx="276.1" ry="61.4"/>
						
							<ellipse transform="matrix(0.9731 -0.2303 0.2303 0.9731 -14.2204 181.2813)" class="st3" cx="769.5" cy="151.6" rx="269.9" ry="62.2"/>
						
							<ellipse transform="matrix(0.9731 -0.2303 0.2303 0.9731 -14.8091 180.0043)" class="st3" cx="763.6" cy="153.4" rx="263.6" ry="63.1"/>
						
							<ellipse transform="matrix(0.9735 -0.2287 0.2287 0.9735 -16.7005 176.9536)" class="st3" cx="755.2" cy="160.5" rx="253.3" ry="68.2"/>
						
							<ellipse transform="matrix(0.9739 -0.227 0.227 0.9739 -17.9525 173.6049)" class="st3" cx="745.8" cy="164.9" rx="242.9" ry="69.9"/>
						
							<ellipse transform="matrix(0.9743 -0.2254 0.2254 0.9743 -19.3708 170.4461)" class="st3" cx="736.9" cy="170.1" rx="232.5" ry="73.5"/>
						
							<ellipse transform="matrix(0.9751 -0.222 0.222 0.9751 -20.6747 165.5277)" class="st3" cx="726.1" cy="174.7" rx="221" ry="74.3"/>
						
							<ellipse transform="matrix(0.9762 -0.217 0.217 0.9762 -22.6579 159.2034)" class="st3" cx="713.7" cy="182.8" rx="206.5" ry="79.5"/>
						
							<ellipse transform="matrix(0.9769 -0.2136 0.2136 0.9769 -23.6137 155.2659)" class="st3" cx="706.6" cy="186.9" rx="198.2" ry="82"/>
						
							<ellipse transform="matrix(0.9787 -0.2052 0.2052 0.9787 -25.0839 147.4562)" class="st3" cx="698.3" cy="194.7" rx="187.9" ry="87.2"/>
						
							<ellipse transform="matrix(0.9804 -0.1968 0.1968 0.9804 -25.8628 139.6023)" class="st3" cx="689.4" cy="199.9" rx="177.6" ry="90.6"/>
						
							<ellipse transform="matrix(0.9814 -0.1917 0.1917 0.9814 -26.1561 135.4772)" class="st3" cx="687" cy="202.9" rx="174.5" ry="92.3"/>
						
							<ellipse transform="matrix(0.9837 -0.1798 0.1798 0.9837 -26.3307 126.1104)" class="st3" cx="682.4" cy="208.3" rx="168.2" ry="96.6"/>
						
							<ellipse transform="matrix(0.9849 -0.173 0.173 0.9849 -26.1075 120.6729)" class="st3" cx="679.1" cy="210.1" rx="164.2" ry="98.3"/>
						
							<ellipse transform="matrix(0.9864 -0.1645 0.1645 0.9864 -25.8304 114.4281)" class="st3" cx="678" cy="213.2" rx="162.1" ry="100.8"/>
						
							<ellipse transform="matrix(0.988 -0.1542 0.1542 0.988 -25.2426 106.7014)" class="st3" cx="675.4" cy="216.1" rx="159.1" ry="102.5"/>
						
							<ellipse transform="matrix(0.9891 -0.1473 0.1473 0.9891 -24.7374 101.7756)" class="st3" cx="675" cy="218" rx="158.1" ry="104.2"/>
						
							<ellipse transform="matrix(0.9899 -0.1421 0.1421 0.9899 -24.3183 98.0081)" class="st3" cx="674.2" cy="219.3" rx="157.1" ry="105"/>
						
							<ellipse transform="matrix(0.9913 -0.1317 0.1317 0.9913 -23.2443 90.7159)" class="st3" cx="674.3" cy="221.1" rx="156.2" ry="107.6"/>
						
							<ellipse transform="matrix(0.993 -0.1177 0.1177 0.993 -21.7221 80.9074)" class="st3" cx="674.1" cy="224.4" rx="155.3" ry="110"/>
						
							<ellipse transform="matrix(0.9966 -8.204184e-02 8.204184e-02 0.9966 -16.6371 56.2656)" class="st3" cx="676.3" cy="230.6" rx="154" ry="115.6"/>
						
							<ellipse transform="matrix(0.9966 -8.204184e-02 8.204184e-02 0.9966 -16.6371 56.2656)" class="st3" cx="676.3" cy="230.6" rx="154" ry="115.6"/>
						<ellipse class="st3" cx="669.6" cy="236.4" rx="147.8" ry="119.7"/>
						<ellipse class="st3" cx="670.9" cy="237" rx="148.9" ry="120.5"/>
						<ellipse class="st3" cx="672.9" cy="237.8" rx="150.4" ry="121.8"/>
						<ellipse class="st3" cx="673.5" cy="238.1" rx="151" ry="122.2"/>
						
							<ellipse transform="matrix(8.766947e-02 -0.9961 0.9961 8.766947e-02 370.7692 889.48)" class="st3" cx="671" cy="242.3" rx="124.7" ry="147.8"/>
						
							<ellipse transform="matrix(0.1171 -0.9931 0.9931 0.1171 349.8605 879.8794)" class="st3" cx="669.8" cy="243.2" rx="125.3" ry="147"/>
						
							<ellipse transform="matrix(0.1447 -0.9895 0.9895 0.1447 331.6096 873.3433)" class="st3" cx="671" cy="244.9" rx="126.5" ry="147.3"/>
						
							<ellipse transform="matrix(0.1447 -0.9895 0.9895 0.1447 331.6096 873.3433)" class="st3" cx="671" cy="244.9" rx="126.5" ry="147.3"/>
						
							<ellipse transform="matrix(0.163 -0.9866 0.9866 0.163 318.7604 865.7606)" class="st3" cx="669.7" cy="245" rx="126.3" ry="146.4"/>
						
							<ellipse transform="matrix(0.163 -0.9866 0.9866 0.163 318.7604 865.7606)" class="st3" cx="669.7" cy="245" rx="126.3" ry="146.4"/>
						
							<ellipse transform="matrix(0.2937 -0.9559 0.9559 0.2937 234.8132 816.7198)" class="st3" cx="670.1" cy="249.5" rx="129.5" ry="146.9"/>
						
							<ellipse transform="matrix(0.4201 -0.9075 0.9075 0.4201 158.8635 753.7236)" class="st3" cx="669.1" cy="252.6" rx="130.3" ry="146.6"/>
						
							<ellipse transform="matrix(0.4433 -0.8964 0.8964 0.4433 145.7459 740.5012)" class="st3" cx="669" cy="252.9" rx="130.8" ry="147"/>
						
							<ellipse transform="matrix(0.496 -0.8683 0.8683 0.496 115.9086 709.4036)" class="st3" cx="669.1" cy="254.8" rx="130.6" ry="147"/>
						
							<ellipse transform="matrix(0.496 -0.8683 0.8683 0.496 115.9086 709.4036)" class="st3" cx="669.1" cy="254.8" rx="130.6" ry="147"/>
						
							<ellipse transform="matrix(0.496 -0.8683 0.8683 0.496 115.9086 709.4036)" class="st3" cx="669.1" cy="254.8" rx="130.6" ry="147"/>
						
							<ellipse transform="matrix(0.618 -0.7862 0.7862 0.618 52.4333 626.1597)" class="st3" cx="670.6" cy="259.1" rx="132.6" ry="150.3"/>
						
							<ellipse transform="matrix(0.618 -0.7862 0.7862 0.618 52.4333 626.1597)" class="st3" cx="670.6" cy="259.1" rx="132.6" ry="150.3"/>
						
							<ellipse transform="matrix(0.6395 -0.7688 0.7688 0.6395 41.862 608.2867)" class="st3" cx="669.5" cy="259.5" rx="131.8" ry="150"/>
						
							<ellipse transform="matrix(0.6395 -0.7688 0.7688 0.6395 41.862 608.2867)" class="st3" cx="669.5" cy="259.5" rx="131.8" ry="150"/>
						
							<ellipse transform="matrix(0.6591 -0.752 0.752 0.6591 32.6884 591.1097)" class="st3" cx="668.4" cy="259.5" rx="131.1" ry="149.6"/>
						
							<ellipse transform="matrix(0.6591 -0.752 0.752 0.6591 32.6884 591.1097)" class="st3" cx="668.4" cy="259.5" rx="131.1" ry="149.6"/>
						
							<ellipse transform="matrix(0.6591 -0.752 0.752 0.6591 32.6884 591.1097)" class="st3" cx="668.4" cy="259.5" rx="131.1" ry="149.6"/>
						
							<ellipse transform="matrix(0.6955 -0.7185 0.7185 0.6955 16.0122 558.1442)" class="st3" cx="666.5" cy="260.2" rx="129.7" ry="149.1"/>
						
							<ellipse transform="matrix(0.6955 -0.7185 0.7185 0.6955 16.0122 558.1442)" class="st3" cx="666.5" cy="260.2" rx="129.7" ry="149.1"/>
						
							<ellipse transform="matrix(0.6955 -0.7185 0.7185 0.6955 16.0122 558.1442)" class="st3" cx="666.5" cy="260.2" rx="129.7" ry="149.1"/>
						
							<ellipse transform="matrix(0.7411 -0.6714 0.6714 0.7411 -3.7227 513.3393)" class="st3" cx="663.7" cy="261.5" rx="127.3" ry="148.3"/>
						
							<ellipse transform="matrix(0.765 -0.644 0.644 0.765 -12.9671 487.4702)" class="st3" cx="661.5" cy="261.5" rx="125.5" ry="148"/>
						
							<ellipse transform="matrix(0.8116 -0.5841 0.5841 0.8116 -30.0872 433.0898)" class="st3" cx="656.5" cy="263.2" rx="121.1" ry="147.2"/>
						
							<ellipse transform="matrix(0.8195 -0.573 0.573 0.8195 -32.6155 424.1693)" class="st3" cx="657.1" cy="263.9" rx="120.5" ry="147.4"/>
						
							<ellipse transform="matrix(0.8523 -0.523 0.523 0.8523 -42.7289 378.7318)" class="st3" cx="649.4" cy="265" rx="114.6" ry="146.6"/>
						
							<ellipse transform="matrix(0.8669 -0.4985 0.4985 0.8669 -46.841 354.7843)" class="st3" cx="640.9" cy="265.1" rx="107.5" ry="141"/>
						
							<ellipse transform="matrix(0.8831 -0.4692 0.4692 0.8831 -49.3652 328.417)" class="st3" cx="634.4" cy="263.3" rx="101.6" ry="140.7"/>
						
							<ellipse transform="matrix(0.9044 -0.4268 0.4268 0.9044 -52.9227 289.133)" class="st3" cx="618.6" cy="262.6" rx="87.5" ry="135.9"/>
						
							<ellipse transform="matrix(0.9044 -0.4268 0.4268 0.9044 -51.7069 286.803)" class="st3" cx="614" cy="258.8" rx="84.4" ry="131.2"/>
						
							<ellipse transform="matrix(0.9126 -0.4089 0.4089 0.9126 -53.0969 270.8665)" class="st3" cx="606.8" cy="259.6" rx="77.3" ry="131"/>
						
							<ellipse transform="matrix(0.9192 -0.3939 0.3939 0.9192 -54.6396 257.3876)" class="st3" cx="599.8" cy="261.8" rx="70.2" ry="130.9"/>
						
							<ellipse transform="matrix(0.923 -0.3848 0.3848 0.923 -55.4603 248.6912)" class="st3" cx="593.7" cy="262.9" rx="64" ry="130.8"/>
						
							<ellipse transform="matrix(0.9274 -0.3741 0.3741 0.9274 -54.9626 235.922)" class="st3" cx="580.3" cy="259.6" rx="52.7" ry="124.1"/>
						
							<ellipse transform="matrix(0.9299 -0.3679 0.3679 0.9299 -55.3528 229.2375)" class="st3" cx="573.6" cy="259.8" rx="46.5" ry="122.3"/>
						
							<ellipse transform="matrix(0.9311 -0.3648 0.3648 0.9311 -55.6427 225.9405)" class="st3" cx="570.2" cy="260.2" rx="43.4" ry="121.3"/>
						
							<ellipse transform="matrix(0.9304 -0.3664 0.3664 0.9304 -54.6574 225.7296)" class="st3" cx="567.3" cy="256.8" rx="40.4" ry="119.6"/>
						
							<ellipse transform="matrix(0.9329 -0.3602 0.3602 0.9329 -55.6224 219.5619)" class="st3" cx="561.3" cy="259" rx="35.1" ry="118.6"/>
						
							<ellipse transform="matrix(0.9335 -0.3587 0.3587 0.9335 -55.9067 217.5004)" class="st3" cx="558.2" cy="259.4" rx="32" ry="118.6"/>
						
							<ellipse transform="matrix(0.9347 -0.3555 0.3555 0.9347 -56.132 213.7561)" class="st3" cx="553.5" cy="259.6" rx="27.9" ry="116.9"/>
						
							<ellipse transform="matrix(0.9352 -0.354 0.354 0.9352 -56.299 211.2039)" class="st3" cx="549.1" cy="259.5" rx="23.8" ry="116"/>
						
							<ellipse transform="matrix(0.9358 -0.3525 0.3525 0.9358 -56.3284 208.5119)" class="st3" cx="544.5" cy="258.9" rx="19.6" ry="114.2"/>
						
							<ellipse transform="matrix(0.9358 -0.3525 0.3525 0.9358 -56.124 208.0359)" class="st3" cx="543.2" cy="258.1" rx="18.6" ry="113.4"/>
						
							<ellipse transform="matrix(0.9364 -0.3509 0.3509 0.9364 -56.4934 205.5083)" class="st3" cx="538.8" cy="258.6" rx="14.5" ry="112.5"/>
						
							<ellipse transform="matrix(0.9364 -0.3509 0.3509 0.9364 -56.1624 204.5115)" class="st3" cx="536.2" cy="257.2" rx="12.4" ry="110.7"/>
						
							<ellipse transform="matrix(0.9364 -0.3509 0.3509 0.9364 -56.1825 203.3643)" class="st3" cx="533" cy="256.7" rx="9.3" ry="109.9"/>
						
							<ellipse transform="matrix(0.937 -0.3493 0.3493 0.937 -56.2881 201.0304)" class="st3" cx="529.2" cy="256.6" rx="6.2" ry="108.1"/>
						
							<ellipse transform="matrix(0.937 -0.3494 0.3494 0.937 -56.1007 199.7104)" class="st3" cx="525.6" cy="255.4" rx="3.1" ry="106.4"/>
						
							<ellipse transform="matrix(0.937 -0.3494 0.3494 0.937 -55.8092 197.3864)" class="st3" cx="519.3" cy="253.4" rx="2.1" ry="102.8"/>
						
							<ellipse transform="matrix(0.937 -0.3493 0.3493 0.937 -55.5053 195.8666)" class="st3" cx="515.3" cy="251.8" rx="5.2" ry="100.2"/>
						
							<ellipse transform="matrix(0.9364 -0.3509 0.3509 0.9364 -55.1475 194.532)" class="st3" cx="509.1" cy="249.4" rx="10.3" ry="96.8"/>
						
							<ellipse transform="matrix(0.9358 -0.3524 0.3524 0.9358 -55.0092 192.6236)" class="st3" cx="501.5" cy="247.4" rx="16.5" ry="92.4"/>
						
							<ellipse transform="matrix(0.9341 -0.3571 0.3571 0.9341 -55.2785 192.3013)" class="st3" cx="493.2" cy="245.9" rx="23.8" ry="88.9"/>
						
							<ellipse transform="matrix(0.9299 -0.3679 0.3679 0.9299 -55.4214 194.7795)" class="st3" cx="483.2" cy="242.8" rx="32" ry="83.7"/>
						
							<ellipse transform="matrix(0.9205 -0.3909 0.3909 0.9205 -56.2737 203.8276)" class="st3" cx="472.6" cy="240.2" rx="41.3" ry="79.4"/>
						
							<ellipse transform="matrix(0.9099 -0.4149 0.4149 0.9099 -56.845 214.9773)" class="st3" cx="466.3" cy="238.3" rx="46.4" ry="76.1"/>
						
							<ellipse transform="matrix(0.8471 -0.5314 0.5314 0.8471 -55.8318 277.4635)" class="st3" cx="454.3" cy="235.8" rx="56.2" ry="71.4"/>
						
							<ellipse transform="matrix(0.7787 -0.6274 0.6274 0.7787 -48.56 334.6195)" class="st3" cx="450" cy="236.1" rx="59.8" ry="71"/>
						
							<ellipse transform="matrix(0.4383 -0.8988 0.8988 0.4383 38.5667 530.6903)" class="st3" cx="443.9" cy="234.5" rx="62.4" ry="70.2"/>
						
							<ellipse transform="matrix(0.2759 -0.9612 0.9612 0.2759 94.7761 593.7371)" class="st3" cx="441.4" cy="234" rx="62.6" ry="71.1"/>
						<ellipse class="st3" cx="433.9" cy="234.1" rx="77" ry="62.3"/>
						
							<ellipse transform="matrix(0.9951 -9.841426e-02 9.841426e-02 0.9951 -21.0149 43.1099)" class="st3" cx="426.5" cy="234.6" rx="84" ry="61.7"/>
						
							<ellipse transform="matrix(0.9903 -0.1386 0.1386 0.9903 -28.4494 60.5585)" class="st3" cx="420.6" cy="234.6" rx="89.1" ry="60.1"/>
						
							<ellipse transform="matrix(0.9824 -0.1867 0.1867 0.9824 -36.0627 80.3467)" class="st3" cx="408.6" cy="231.7" rx="99.2" ry="54.8"/>
						
							<ellipse transform="matrix(0.9791 -0.2035 0.2035 0.9791 -39.8068 84.7988)" class="st3" cx="392.3" cy="235.9" rx="115.8" ry="54.9"/>
						
							<ellipse transform="matrix(0.978 -0.2086 0.2086 0.978 -40.9596 85.8182)" class="st3" cx="386.4" cy="237.1" rx="122.1" ry="54.9"/>
						
							<ellipse transform="matrix(0.9773 -0.2119 0.2119 0.9773 -42.1591 85.59)" class="st3" cx="378.2" cy="239.5" rx="130.4" ry="54.9"/>
						
							<ellipse transform="matrix(0.9754 -0.2203 0.2203 0.9754 -42.8406 87.4352)" class="st3" cx="370.5" cy="235.8" rx="136.7" ry="50"/>
						
							<ellipse transform="matrix(0.975 -0.222 0.222 0.975 -43.5708 86.8501)" class="st3" cx="364.5" cy="237.2" rx="142.9" ry="50"/>
						
							<ellipse transform="matrix(0.9751 -0.222 0.222 0.9751 -43.7775 86.0448)" class="st3" cx="360.9" cy="237.8" rx="146" ry="49.2"/>
						
							<ellipse transform="matrix(0.9743 -0.2253 0.2253 0.9743 -44.5797 85.8373)" class="st3" cx="353.7" cy="238.2" rx="153.3" ry="48.3"/>
						
							<ellipse transform="matrix(0.9743 -0.2253 0.2253 0.9743 -44.6549 85.6086)" class="st3" cx="352.7" cy="238.4" rx="154.3" ry="48.3"/>
						
							<ellipse transform="matrix(0.9735 -0.2287 0.2287 0.9735 -44.533 85.6057)" class="st3" cx="347.1" cy="235" rx="158.5" ry="43.6"/>
						
							<ellipse transform="matrix(0.9735 -0.2287 0.2287 0.9735 -44.8188 84.9019)" class="st3" cx="344" cy="235.9" rx="161.6" ry="43.6"/>
						
							<ellipse transform="matrix(0.9735 -0.2287 0.2287 0.9735 -45.0191 84.4508)" class="st3" cx="341.9" cy="236.5" rx="163.7" ry="43.6"/>
						
							<ellipse transform="matrix(0.9735 -0.2287 0.2287 0.9735 -45.1967 83.9977)" class="st3" cx="339.9" cy="237" rx="165.7" ry="43.7"/>
						
							<ellipse transform="matrix(0.9735 -0.2287 0.2287 0.9735 -45.1967 83.9977)" class="st3" cx="339.9" cy="237" rx="165.7" ry="43.7"/>
						
							<ellipse transform="matrix(0.9735 -0.2287 0.2287 0.9735 -45.1967 83.9977)" class="st3" cx="339.9" cy="237" rx="165.7" ry="43.7"/>
						
							<ellipse transform="matrix(0.9735 -0.2287 0.2287 0.9735 -45.1967 83.9977)" class="st3" cx="339.9" cy="237" rx="165.7" ry="43.7"/>
						
							<ellipse transform="matrix(0.9735 -0.2287 0.2287 0.9735 -45.1967 83.9977)" class="st3" cx="339.9" cy="237" rx="165.7" ry="43.7"/>
						
							<ellipse transform="matrix(0.9735 -0.2287 0.2287 0.9735 -45.1967 83.9977)" class="st3" cx="339.9" cy="237" rx="165.7" ry="43.7"/>
						
							<ellipse transform="matrix(0.9735 -0.2287 0.2287 0.9735 -45.1967 83.9977)" class="st3" cx="339.9" cy="237" rx="165.7" ry="43.7"/>
						
							<ellipse transform="matrix(0.9735 -0.2287 0.2287 0.9735 -45.1967 83.9977)" class="st3" cx="339.9" cy="237" rx="165.7" ry="43.7"/>
						
							<ellipse transform="matrix(0.9735 -0.2287 0.2287 0.9735 -45.1967 83.9977)" class="st3" cx="339.9" cy="237" rx="165.7" ry="43.7"/>
						
							<ellipse transform="matrix(0.9735 -0.2287 0.2287 0.9735 -45.2744 83.767)" class="st3" cx="338.9" cy="237.3" rx="166.8" ry="43.7"/>
						
							<ellipse transform="matrix(0.9735 -0.2287 0.2287 0.9735 -45.2744 83.767)" class="st3" cx="338.9" cy="237.3" rx="166.8" ry="43.7"/>
						
							<ellipse transform="matrix(0.9735 -0.2287 0.2287 0.9735 -45.2744 83.767)" class="st3" cx="338.9" cy="237.3" rx="166.8" ry="43.7"/>
						
							<ellipse transform="matrix(0.9735 -0.2287 0.2287 0.9735 -45.2744 83.767)" class="st3" cx="338.9" cy="237.3" rx="166.8" ry="43.7"/>
						
							<ellipse transform="matrix(0.9735 -0.2287 0.2287 0.9735 -45.2744 83.767)" class="st3" cx="338.9" cy="237.3" rx="166.8" ry="43.7"/>
						
							<ellipse transform="matrix(0.9735 -0.2287 0.2287 0.9735 -45.2744 83.767)" class="st3" cx="338.9" cy="237.3" rx="166.8" ry="43.7"/>
						
							<ellipse transform="matrix(0.9735 -0.2287 0.2287 0.9735 -45.2744 83.767)" class="st3" cx="338.9" cy="237.3" rx="166.8" ry="43.7"/>
						
							<ellipse transform="matrix(0.9735 -0.2287 0.2287 0.9735 -45.2744 83.767)" class="st3" cx="338.9" cy="237.3" rx="166.8" ry="43.7"/>
						
							<ellipse transform="matrix(0.9735 -0.2287 0.2287 0.9735 -45.2744 83.767)" class="st3" cx="338.9" cy="237.3" rx="166.8" ry="43.7"/>
						
							<ellipse transform="matrix(0.9735 -0.2287 0.2287 0.9735 -45.2744 83.767)" class="st3" cx="338.9" cy="237.3" rx="166.8" ry="43.7"/>
						
							<ellipse transform="matrix(0.9735 -0.2287 0.2287 0.9735 -45.2744 83.767)" class="st3" cx="338.9" cy="237.3" rx="166.8" ry="43.7"/>
						
							<ellipse transform="matrix(0.9735 -0.2287 0.2287 0.9735 -45.2744 83.767)" class="st3" cx="338.9" cy="237.3" rx="166.8" ry="43.7"/>
						
							<ellipse transform="matrix(0.9735 -0.2287 0.2287 0.9735 -45.2744 83.767)" class="st3" cx="338.9" cy="237.3" rx="166.8" ry="43.7"/>
						
							<ellipse transform="matrix(0.9735 -0.2287 0.2287 0.9735 -45.2744 83.767)" class="st3" cx="338.9" cy="237.3" rx="166.8" ry="43.7"/>
						
							<ellipse transform="matrix(0.9735 -0.2287 0.2287 0.9735 -45.2744 83.767)" class="st3" cx="338.9" cy="237.3" rx="166.8" ry="43.7"/>
						
							<ellipse transform="matrix(0.9735 -0.2287 0.2287 0.9735 -45.2744 83.767)" class="st3" cx="338.9" cy="237.3" rx="166.8" ry="43.7"/>
					</g>
				</g>
			</g>
		</g>
	</g>
</g>
<g id="Layer_2">
</g>
</svg>
