<?xml version="1.0" encoding="utf-8"?>
<!-- Generator: Adobe Illustrator 23.0.1, SVG Export Plug-In . SVG Version: 6.00 Build 0)  -->
<svg version="1.1" id="Capa_1" xmlns="http://www.w3.org/2000/svg" xmlns:xlink="http://www.w3.org/1999/xlink" x="0px" y="0px"
	 viewBox="0 0 50 50" style="enable-background:new 0 0 50 50;" xml:space="preserve">
<style type="text/css">
	.st0{fill:#FFFFFF;}
</style>
<g>
	<path class="st0" d="M40,16H10c-0.5,0-1-0.4-1-1v0c0-0.5,0.4-1,1-1h30c0.5,0,1,0.4,1,1v0C41,15.6,40.5,16,40,16z"/>
	<path class="st0" d="M40,26H10c-0.5,0-1-0.4-1-1v0c0-0.5,0.4-1,1-1h30c0.5,0,1,0.4,1,1v0C41,25.6,40.5,26,40,26z"/>
	<path class="st0" d="M40,36H10c-0.5,0-1-0.5-1-1l0,0c0-0.5,0.4-1,1-1h30c0.5,0,1,0.5,1,1l0,0C41,35.5,40.5,36,40,36z"/>
</g>
</svg>
