<?xml version="1.0" encoding="utf-8"?>
<!-- Generator: Adobe Illustrator 23.0.1, SVG Export Plug-In . SVG Version: 6.00 Build 0)  -->
<svg version="1.1" id="Layer_1" xmlns="http://www.w3.org/2000/svg" xmlns:xlink="http://www.w3.org/1999/xlink" x="0px" y="0px"
	 viewBox="0 0 818.4 177.6" style="enable-background:new 0 0 818.4 177.6;" xml:space="preserve">
<style type="text/css">
	.st0{fill:#28283D;}
	.st1{opacity:0.25;}
	.st2{clip-path:url(#SVGID_2_);}
	.st3{fill:none;stroke:#BA1C1C;stroke-miterlimit:10;}
</style>
<rect x="-220" y="-42" class="st0" width="1200" height="250.9"/>
<g class="st1">
	<g>
		<defs>
			<rect id="SVGID_1_" x="-220" y="-42.8" width="1200" height="252"/>
		</defs>
		<clipPath id="SVGID_2_">
			<use xlink:href="#SVGID_1_"  style="overflow:visible;"/>
		</clipPath>
		<g class="st2">
			
				<ellipse transform="matrix(0.9731 -0.2303 0.2303 0.9731 7.6516 103.4987)" class="st3" cx="447.1" cy="19" rx="205.3" ry="49.8"/>
			
				<ellipse transform="matrix(0.9731 -0.2303 0.2303 0.9731 7.8768 103.3884)" class="st3" cx="446.8" cy="18" rx="205.3" ry="50.6"/>
			
				<ellipse transform="matrix(0.9731 -0.2303 0.2303 0.9731 7.8768 103.3884)" class="st3" cx="446.8" cy="18" rx="205.3" ry="50.6"/>
			
				<ellipse transform="matrix(0.9735 -0.2286 0.2286 0.9735 7.9152 102.4898)" class="st3" cx="446.3" cy="17.1" rx="205.3" ry="52.4"/>
			
				<ellipse transform="matrix(0.9735 -0.2286 0.2286 0.9735 8.1417 102.4039)" class="st3" cx="446" cy="16.1" rx="205.3" ry="53.2"/>
			
				<ellipse transform="matrix(0.9735 -0.2287 0.2287 0.9735 8.3876 102.2879)" class="st3" cx="445.6" cy="14.9" rx="205.3" ry="54.1"/>
			
				<ellipse transform="matrix(0.9735 -0.2287 0.2287 0.9735 8.6142 102.2021)" class="st3" cx="445.3" cy="13.9" rx="205.3" ry="54.9"/>
			
				<ellipse transform="matrix(0.9735 -0.2287 0.2287 0.9735 8.8383 102.094)" class="st3" cx="445" cy="12.9" rx="205.3" ry="55.8"/>
			
				<ellipse transform="matrix(0.9739 -0.227 0.227 0.9739 8.6479 101.3105)" class="st3" cx="444.9" cy="13.1" rx="205.3" ry="56.7"/>
			<ellipse transform="matrix(0.9739 -0.227 0.227 0.9739 8.8706 101.2034)" class="st3" cx="444.5" cy="12" rx="205.3" ry="57.5"/>
			<ellipse transform="matrix(0.9739 -0.227 0.227 0.9739 9.096 101.1194)" class="st3" cx="444.2" cy="11" rx="205.4" ry="58.4"/>
			<ellipse transform="matrix(0.9739 -0.227 0.227 0.9739 9.5416 100.9059)" class="st3" cx="443.5" cy="9" rx="205.4" ry="60.2"/>
			
				<ellipse transform="matrix(0.9739 -0.227 0.227 0.9739 9.8656 101.0409)" class="st3" cx="444.2" cy="7.6" rx="206.4" ry="61.1"/>
			
				<ellipse transform="matrix(0.9743 -0.2253 0.2253 0.9743 9.7412 100.4594)" class="st3" cx="445" cy="7.6" rx="207.4" ry="61.9"/>
			
				<ellipse transform="matrix(0.9743 -0.2253 0.2253 0.9743 10.0157 100.5817)" class="st3" cx="445.7" cy="6.4" rx="208.5" ry="62.8"/>
			
				<ellipse transform="matrix(0.9743 -0.2253 0.2253 0.9743 10.3672 100.9458)" class="st3" cx="447.4" cy="5.1" rx="210.6" ry="63.6"/>
			
				<ellipse transform="matrix(0.9743 -0.2253 0.2253 0.9743 10.9077 100.9531)" class="st3" cx="447.7" cy="2.7" rx="211.6" ry="65.4"/>
			
				<ellipse transform="matrix(0.9743 -0.2253 0.2253 0.9743 11.1318 100.8702)" class="st3" cx="447.4" cy="1.7" rx="211.6" ry="66.2"/>
			
				<ellipse transform="matrix(0.9747 -0.2236 0.2236 0.9747 11.2909 100.4061)" class="st3" cx="448.9" cy="0.4" rx="213.7" ry="67.9"/>
			
				<ellipse transform="matrix(0.9747 -0.2236 0.2236 0.9747 11.5846 100.5208)" class="st3" cx="449.6" cy="-0.9" rx="214.8" ry="68.8"/>
			
				<ellipse transform="matrix(0.9747 -0.2236 0.2236 0.9747 11.6366 100.7465)" class="st3" cx="450.6" cy="-1" rx="215.8" ry="68.8"/>
			
				<ellipse transform="matrix(0.9747 -0.2237 0.2237 0.9747 11.9329 100.8836)" class="st3" cx="451.3" cy="-2.2" rx="216.9" ry="69.7"/>
			
				<ellipse transform="matrix(0.9747 -0.2237 0.2237 0.9747 12.4695 100.8919)" class="st3" cx="451.6" cy="-4.6" rx="217.9" ry="71.4"/>
			
				<ellipse transform="matrix(0.9747 -0.2237 0.2237 0.9747 12.7417 101.0135)" class="st3" cx="452.3" cy="-5.7" rx="219" ry="72.3"/>
			
				<ellipse transform="matrix(0.9747 -0.2237 0.2237 0.9747 12.7417 101.0135)" class="st3" cx="452.3" cy="-5.7" rx="219" ry="72.3"/>
			
				<ellipse transform="matrix(0.9747 -0.2237 0.2237 0.9747 13.0975 101.3977)" class="st3" cx="454.1" cy="-7.1" rx="221" ry="73.2"/>
			
				<ellipse transform="matrix(0.9747 -0.2237 0.2237 0.9747 13.3913 101.5124)" class="st3" cx="454.8" cy="-8.4" rx="222.1" ry="74.1"/>
			
				<ellipse transform="matrix(0.9751 -0.222 0.222 0.9751 13.1848 100.7036)" class="st3" cx="454.6" cy="-8.3" rx="222.1" ry="74.9"/>
			<ellipse transform="matrix(0.975 -0.222 0.222 0.975 13.7996 101.186)" class="st3" cx="457" cy="-10.8" rx="225.2" ry="76.6"/>
			
				<ellipse transform="matrix(0.975 -0.222 0.222 0.975 14.1419 101.5247)" class="st3" cx="458.7" cy="-12.1" rx="227.3" ry="77.5"/>
			
				<ellipse transform="matrix(0.9752 -0.2212 0.2212 0.9752 14.8264 102.4993)" class="st3" cx="465.1" cy="-15" rx="232.5" ry="79.6"/>
			
				<ellipse transform="matrix(0.9752 -0.2212 0.2212 0.9752 14.8264 102.4993)" class="st3" cx="465.1" cy="-15" rx="232.5" ry="79.6"/>
			
				<ellipse transform="matrix(0.975 -0.222 0.222 0.975 15.2484 102.7779)" class="st3" cx="464.8" cy="-16.4" rx="234.6" ry="80.1"/>
			
				<ellipse transform="matrix(0.9751 -0.222 0.222 0.9751 15.4723 103.6621)" class="st3" cx="468.9" cy="-17" rx="238.8" ry="80.1"/>
			
				<ellipse transform="matrix(0.9747 -0.2237 0.2237 0.9747 16.131 105.0714)" class="st3" cx="471.9" cy="-18.7" rx="241.9" ry="80.1"/>
			
				<ellipse transform="matrix(0.9747 -0.2237 0.2237 0.9747 16.8249 105.7738)" class="st3" cx="475.3" cy="-21.4" rx="246.1" ry="81.8"/>
			
				<ellipse transform="matrix(0.9747 -0.2237 0.2237 0.9747 18.2886 107.3736)" class="st3" cx="483.1" cy="-27" rx="255.4" ry="85.3"/>
			
				<ellipse transform="matrix(0.9747 -0.2237 0.2237 0.9747 18.5164 108.2643)" class="st3" cx="487.2" cy="-27.6" rx="259.6" ry="85.3"/>
			
				<ellipse transform="matrix(0.9747 -0.2237 0.2237 0.9747 19.3431 109.4327)" class="st3" cx="492.7" cy="-30.7" rx="265.8" ry="87.1"/>
			
				<ellipse transform="matrix(0.9747 -0.2236 0.2236 0.9747 19.7048 110.7944)" class="st3" cx="499" cy="-31.6" rx="272.1" ry="87.1"/>
			
				<ellipse transform="matrix(0.9743 -0.2253 0.2253 0.9743 20.5549 112.6397)" class="st3" cx="503.7" cy="-33.7" rx="277.3" ry="87.1"/>
			
				<ellipse transform="matrix(0.9743 -0.2253 0.2253 0.9743 21.6654 113.9364)" class="st3" cx="509.9" cy="-37.9" rx="284.6" ry="89.7"/>
			
				<ellipse transform="matrix(0.9743 -0.2253 0.2253 0.9743 22.1417 114.7254)" class="st3" cx="513.6" cy="-39.6" rx="288.7" ry="90.5"/>
			
				<ellipse transform="matrix(0.9743 -0.2253 0.2253 0.9743 22.2766 115.1943)" class="st3" cx="515.8" cy="-40" rx="290.8" ry="90.5"/>
			
				<ellipse transform="matrix(0.9743 -0.2253 0.2253 0.9743 22.8805 116.4314)" class="st3" cx="521.5" cy="-42" rx="297.1" ry="91.4"/>
			
				<ellipse transform="matrix(0.9743 -0.2253 0.2253 0.9743 23.091 117.1256)" class="st3" cx="524.7" cy="-42.6" rx="300.2" ry="91.4"/>
			
				<ellipse transform="matrix(0.9743 -0.2253 0.2253 0.9743 23.44 117.467)" class="st3" cx="526.3" cy="-44" rx="302.3" ry="92.2"/>
			
				<ellipse transform="matrix(0.9743 -0.2253 0.2253 0.9743 24.1409 118.1733)" class="st3" cx="529.8" cy="-46.7" rx="306.4" ry="94"/>
			
				<ellipse transform="matrix(0.9743 -0.2253 0.2253 0.9743 24.437 118.287)" class="st3" cx="530.4" cy="-47.9" rx="307.5" ry="94.8"/>
			
				<ellipse transform="matrix(0.9743 -0.2253 0.2253 0.9743 24.8391 118.8565)" class="st3" cx="533.1" cy="-49.4" rx="310.6" ry="95.7"/>
			
				<ellipse transform="matrix(0.9743 -0.2253 0.2253 0.9743 24.9211 119.0979)" class="st3" cx="534.2" cy="-49.6" rx="311.7" ry="95.7"/>
			
				<ellipse transform="matrix(0.9743 -0.2253 0.2253 0.9743 25.323 119.6671)" class="st3" cx="536.9" cy="-51.1" rx="314.8" ry="96.5"/>
			
				<ellipse transform="matrix(0.9743 -0.2253 0.2253 0.9743 26.0239 120.3732)" class="st3" cx="540.3" cy="-53.8" rx="319" ry="98.4"/>
			
				<ellipse transform="matrix(0.9743 -0.2253 0.2253 0.9743 26.0239 120.3732)" class="st3" cx="540.3" cy="-53.8" rx="319" ry="98.4"/>
			
				<ellipse transform="matrix(0.9743 -0.2253 0.2253 0.9743 26.3201 120.4869)" class="st3" cx="541" cy="-55.1" rx="320" ry="99.2"/>
			
				<ellipse transform="matrix(0.9743 -0.2253 0.2253 0.9743 26.6768 120.8501)" class="st3" cx="542.7" cy="-56.4" rx="322.1" ry="100.1"/>
			
				<ellipse transform="matrix(0.9743 -0.2253 0.2253 0.9743 26.8042 121.2979)" class="st3" cx="544.8" cy="-56.8" rx="324.2" ry="100.1"/>
			
				<ellipse transform="matrix(0.9743 -0.2253 0.2253 0.9743 26.9315 121.7458)" class="st3" cx="546.8" cy="-57.1" rx="326.2" ry="100.1"/>
			
				<ellipse transform="matrix(0.9743 -0.2253 0.2253 0.9743 27.1873 122.6466)" class="st3" cx="550.9" cy="-57.8" rx="330.4" ry="100.1"/>
			
				<ellipse transform="matrix(0.9743 -0.2253 0.2253 0.9743 27.3223 123.1159)" class="st3" cx="553.1" cy="-58.1" rx="332.5" ry="100.1"/>
			
				<ellipse transform="matrix(0.9743 -0.2253 0.2253 0.9743 27.5468 123.7815)" class="st3" cx="556.1" cy="-58.8" rx="335.6" ry="100.1"/>
			
				<ellipse transform="matrix(0.9743 -0.2253 0.2253 0.9743 27.5468 123.7815)" class="st3" cx="556.1" cy="-58.8" rx="335.6" ry="100.1"/>
			
				<ellipse transform="matrix(0.9739 -0.227 0.227 0.9739 28.2905 125.0529)" class="st3" cx="557.8" cy="-60.5" rx="337.7" ry="100.1"/>
			
				<ellipse transform="matrix(0.9739 -0.227 0.227 0.9739 28.3444 125.2822)" class="st3" cx="558.8" cy="-60.6" rx="338.7" ry="100.1"/>
			
				<ellipse transform="matrix(0.9739 -0.227 0.227 0.9739 28.5583 125.9814)" class="st3" cx="562" cy="-61.2" rx="341.9" ry="100.1"/>
			
				<ellipse transform="matrix(0.9739 -0.227 0.227 0.9739 28.7862 126.6515)" class="st3" cx="565" cy="-61.8" rx="345" ry="100.1"/>
			
				<ellipse transform="matrix(0.9739 -0.227 0.227 0.9739 29.1271 127.7793)" class="st3" cx="570.1" cy="-62.8" rx="350.2" ry="100.1"/>
			
				<ellipse transform="matrix(0.9739 -0.227 0.227 0.9739 29.3334 128.4572)" class="st3" cx="573.2" cy="-63.3" rx="353.3" ry="100.1"/>
			
				<ellipse transform="matrix(0.9735 -0.2287 0.2287 0.9735 29.9923 130.871)" class="st3" cx="579.7" cy="-64" rx="359.6" ry="98.4"/>
			
				<ellipse transform="matrix(0.9735 -0.2287 0.2287 0.9735 29.8366 131.9996)" class="st3" cx="584.5" cy="-62.8" rx="363.8" ry="96.6"/>
			
				<ellipse transform="matrix(0.9735 -0.2287 0.2287 0.9735 29.8366 131.9996)" class="st3" cx="584.5" cy="-62.8" rx="363.8" ry="96.6"/>
			
				<ellipse transform="matrix(0.9735 -0.2286 0.2286 0.9735 30.1289 133.6723)" class="st3" cx="592" cy="-63.2" rx="371.1" ry="95.7"/>
			
				<ellipse transform="matrix(0.9731 -0.2303 0.2303 0.9731 29.7531 135.0611)" class="st3" cx="593.4" cy="-59.9" rx="371" ry="91.4"/>
			
				<ellipse transform="matrix(0.9731 -0.2303 0.2303 0.9731 29.4497 137.0525)" class="st3" cx="601.8" cy="-57.6" rx="378.3" ry="88"/>
			
				<ellipse transform="matrix(0.9727 -0.232 0.232 0.9727 29.1719 140.7895)" class="st3" cx="613.2" cy="-53.6" rx="387.7" ry="81"/>
			
				<ellipse transform="matrix(0.9727 -0.232 0.232 0.9727 29.1719 140.7895)" class="st3" cx="613.2" cy="-53.6" rx="387.7" ry="81"/>
			
				<ellipse transform="matrix(0.9727 -0.232 0.232 0.9727 28.7052 141.5845)" class="st3" cx="616.4" cy="-51.3" rx="389.7" ry="78.4"/>
			
				<ellipse transform="matrix(0.9723 -0.2337 0.2337 0.9723 28.6038 143.6512)" class="st3" cx="620.6" cy="-48.9" rx="392.8" ry="74.1"/>
			
				<ellipse transform="matrix(0.9723 -0.2336 0.2336 0.9723 28.2372 144.6553)" class="st3" cx="624.7" cy="-46.9" rx="396" ry="71.4"/>
			
				<ellipse transform="matrix(0.9723 -0.2336 0.2336 0.9723 27.8627 145.6377)" class="st3" cx="628.7" cy="-44.8" rx="399.1" ry="68.8"/>
			
				<ellipse transform="matrix(0.9723 -0.2336 0.2336 0.9723 27.154 146.2906)" class="st3" cx="631.1" cy="-41.5" rx="400.1" ry="65.4"/>
			
				<ellipse transform="matrix(0.9723 -0.2336 0.2336 0.9723 26.9707 146.3763)" class="st3" cx="631.4" cy="-40.7" rx="400.1" ry="64.5"/>
			
				<ellipse transform="matrix(0.9719 -0.2353 0.2353 0.9719 26.7449 148.8328)" class="st3" cx="637" cy="-37.6" rx="404.3" ry="59.4"/>
			
				<ellipse transform="matrix(0.9719 -0.2353 0.2353 0.9719 26.3385 149.0399)" class="st3" cx="637.7" cy="-35.8" rx="404.3" ry="57.5"/>
			
				<ellipse transform="matrix(0.9719 -0.2353 0.2353 0.9719 25.616 149.6547)" class="st3" cx="639.9" cy="-32.5" rx="405.3" ry="54.1"/>
			
				<ellipse transform="matrix(0.9719 -0.2353 0.2353 0.9719 24.8374 150.0558)" class="st3" cx="641.2" cy="-29" rx="405.3" ry="50.7"/>
			
				<ellipse transform="matrix(0.9719 -0.2353 0.2353 0.9719 24.0338 150.4419)" class="st3" cx="642.4" cy="-25.5" rx="405.3" ry="47.2"/>
			
				<ellipse transform="matrix(0.9719 -0.2353 0.2353 0.9719 22.8956 151.0405)" class="st3" cx="644.4" cy="-20.4" rx="405.3" ry="41.9"/>
			
				<ellipse transform="matrix(0.9715 -0.237 0.237 0.9715 22.1572 152.6994)" class="st3" cx="646.3" cy="-15.8" rx="405.3" ry="35.9"/>
			
				<ellipse transform="matrix(0.9715 -0.237 0.237 0.9715 20.9795 153.269)" class="st3" cx="648.1" cy="-10.6" rx="405.2" ry="30.6"/>
			
				<ellipse transform="matrix(0.9715 -0.237 0.237 0.9715 20.0193 153.77)" class="st3" cx="649.7" cy="-6.4" rx="405.2" ry="26.3"/>
			
				<ellipse transform="matrix(0.9715 -0.237 0.237 0.9715 17.9595 153.7212)" class="st3" cx="648.5" cy="2.1" rx="401.1" ry="18.5"/>
			<ellipse transform="matrix(0.9715 -0.2369 0.2369 0.9715 17.0923 153.876)" class="st3" cx="648.7" cy="5.8" rx="400" ry="15"/>
			
				<ellipse transform="matrix(0.9715 -0.2369 0.2369 0.9715 15.5205 152.7512)" class="st3" cx="643.2" cy="11.8" rx="392.7" ry="10.6"/>
			<path class="st3" d="M1020.3-69.7L642.8,22.5l-377.4,92.2l377.4-92.2L1020.3-69.7z"/>
			<path class="st3" d="M1016.2-68.7L640.8,23l-375.4,91.7L640.8,23L1016.2-68.7z"/>
			<path class="st3" d="M971.7-44.2c1.8,4.7-126.5,36.3-330.4,86.1s-370.9,86.3-372.7,81.6s162.2-49.2,366.1-99S969.9-49,971.7-44.2
				z"/>
			<path class="st3" d="M958.3-26.6c4.5,12-117.4,48.4-316.4,97S278,148.6,273.5,136.6c-4.5-12,153.2-61.3,352.1-109.9
				S953.8-38.7,958.3-26.6z"/>
			
				<ellipse transform="matrix(0.9715 -0.237 0.237 0.9715 3.9667 149.8591)" class="st3" cx="625.4" cy="58.4" rx="359.4" ry="31.2"/>
			
				<ellipse transform="matrix(0.9719 -0.2353 0.2353 0.9719 -1.4428 143.4636)" class="st3" cx="600.4" cy="77.8" rx="329.2" ry="43.7"/>
			
				<ellipse transform="matrix(0.9723 -0.2336 0.2336 0.9723 -3.676 141.5449)" class="st3" cx="595.7" cy="86.3" rx="321.9" ry="50.1"/>
			
				<ellipse transform="matrix(0.9723 -0.2336 0.2336 0.9723 -5.0719 140.7132)" class="st3" cx="591.4" cy="91.8" rx="315.7" ry="55"/>
			
				<ellipse transform="matrix(0.9723 -0.2336 0.2336 0.9723 -5.8154 138.6166)" class="st3" cx="582.2" cy="93.9" rx="306.3" ry="55"/>
			
				<ellipse transform="matrix(0.9723 -0.2337 0.2337 0.9723 -6.5271 136.5396)" class="st3" cx="573" cy="95.8" rx="296.9" ry="55"/>
			
				<ellipse transform="matrix(0.9723 -0.2337 0.2337 0.9723 -7.0106 135.1812)" class="st3" cx="567" cy="97.2" rx="290.7" ry="55"/>
			
				<ellipse transform="matrix(0.9727 -0.232 0.232 0.9727 -9.5769 131.6839)" class="st3" cx="555.1" cy="106.6" rx="276.1" ry="61.4"/>
			
				<ellipse transform="matrix(0.9731 -0.2303 0.2303 0.9731 -10.5191 129.4808)" class="st3" cx="549.4" cy="109.8" rx="269.9" ry="62.2"/>
			
				<ellipse transform="matrix(0.9731 -0.2303 0.2303 0.9731 -11.108 128.2)" class="st3" cx="543.6" cy="111.7" rx="263.6" ry="63.1"/>
			
				<ellipse transform="matrix(0.9735 -0.2287 0.2287 0.9735 -12.9827 125.5291)" class="st3" cx="535.2" cy="118.8" rx="253.3" ry="68.2"/>
			
				<ellipse transform="matrix(0.9739 -0.227 0.227 0.9739 -14.2184 122.5646)" class="st3" cx="525.8" cy="123.1" rx="242.9" ry="69.9"/>
			
				<ellipse transform="matrix(0.9743 -0.2254 0.2254 0.9743 -15.6213 119.7835)" class="st3" cx="516.9" cy="128.3" rx="232.5" ry="73.5"/>
			<ellipse transform="matrix(0.9751 -0.222 0.222 0.9751 -16.8957 115.6406)" class="st3" cx="506" cy="133" rx="221" ry="74.3"/>
			
				<ellipse transform="matrix(0.9762 -0.217 0.217 0.9762 -18.8402 110.4637)" class="st3" cx="493.6" cy="141" rx="206.5" ry="79.5"/>
			
				<ellipse transform="matrix(0.9769 -0.2136 0.2136 0.9769 -19.7734 107.291)" class="st3" cx="486.5" cy="145.1" rx="198.2" ry="82"/>
			
				<ellipse transform="matrix(0.9787 -0.2052 0.2052 0.9787 -21.1984 101.4072)" class="st3" cx="478.3" cy="152.9" rx="187.9" ry="87.2"/>
			
				<ellipse transform="matrix(0.9804 -0.1968 0.1968 0.9804 -21.9487 95.4766)" class="st3" cx="469.4" cy="158.2" rx="177.6" ry="90.6"/>
			
				<ellipse transform="matrix(0.9814 -0.1917 0.1917 0.9814 -22.2327 92.5144)" class="st3" cx="467" cy="161.1" rx="174.5" ry="92.3"/>
			
				<ellipse transform="matrix(0.9837 -0.1798 0.1798 0.9837 -22.4091 85.8562)" class="st3" cx="462.3" cy="166.5" rx="168.2" ry="96.6"/>
			
				<ellipse transform="matrix(0.9849 -0.173 0.173 0.9849 -22.2016 81.9655)" class="st3" cx="459" cy="168.3" rx="164.2" ry="98.3"/>
			
				<ellipse transform="matrix(0.9864 -0.1645 0.1645 0.9864 -21.9594 77.6648)" class="st3" cx="458" cy="171.4" rx="162.1" ry="100.8"/>
			
				<ellipse transform="matrix(0.988 -0.1542 0.1542 0.988 -21.4361 72.2805)" class="st3" cx="455.4" cy="174.4" rx="159.1" ry="102.5"/>
			
				<ellipse transform="matrix(0.9891 -0.1473 0.1473 0.9891 -20.9875 68.9162)" class="st3" cx="454.9" cy="176.2" rx="158.1" ry="104.2"/>
			
				<ellipse transform="matrix(0.9899 -0.1421 0.1421 0.9899 -20.6182 66.3236)" class="st3" cx="454.2" cy="177.6" rx="157.1" ry="105"/>
			
				<ellipse transform="matrix(0.9913 -0.1317 0.1317 0.9913 -19.6622 61.3787)" class="st3" cx="454.3" cy="179.4" rx="156.2" ry="107.6"/>
			
				<ellipse transform="matrix(0.993 -0.1177 0.1177 0.993 -18.337 54.717)" class="st3" cx="454.1" cy="182.6" rx="155.3" ry="110"/>
			
				<ellipse transform="matrix(0.9966 -8.204184e-02 8.204184e-02 0.9966 -13.9532 38.0716)" class="st3" cx="456.3" cy="188.8" rx="154" ry="115.6"/>
			
				<ellipse transform="matrix(0.9966 -8.204184e-02 8.204184e-02 0.9966 -13.9532 38.0716)" class="st3" cx="456.3" cy="188.8" rx="154" ry="115.6"/>
			<ellipse class="st3" cx="449.6" cy="194.7" rx="147.8" ry="119.7"/>
			<ellipse class="st3" cx="450.9" cy="195.3" rx="148.9" ry="120.5"/>
			<ellipse class="st3" cx="452.9" cy="196.1" rx="150.4" ry="121.8"/>
			<ellipse class="st3" cx="453.5" cy="196.4" rx="151" ry="122.2"/>
			
				<ellipse transform="matrix(8.766947e-02 -0.9961 0.9961 8.766947e-02 211.6062 632.1829)" class="st3" cx="450.9" cy="200.6" rx="124.7" ry="147.8"/>
			
				<ellipse transform="matrix(0.1171 -0.9931 0.9931 0.1171 197.0442 624.4769)" class="st3" cx="449.7" cy="201.4" rx="125.3" ry="147"/>
			
				<ellipse transform="matrix(0.1447 -0.9895 0.9895 0.1447 184.7079 619.8928)" class="st3" cx="450.9" cy="203.1" rx="126.5" ry="147.3"/>
			
				<ellipse transform="matrix(0.1447 -0.9895 0.9895 0.1447 184.7079 619.8928)" class="st3" cx="450.9" cy="203.1" rx="126.5" ry="147.3"/>
			
				<ellipse transform="matrix(0.163 -0.9866 0.9866 0.163 175.7811 613.7064)" class="st3" cx="449.6" cy="203.2" rx="126.3" ry="146.4"/>
			
				<ellipse transform="matrix(0.163 -0.9866 0.9866 0.163 175.7811 613.7064)" class="st3" cx="449.6" cy="203.2" rx="126.3" ry="146.4"/>
			
				<ellipse transform="matrix(0.2937 -0.9559 0.9559 0.2937 119.3166 576.8885)" class="st3" cx="450.1" cy="207.7" rx="129.5" ry="146.9"/>
			
				<ellipse transform="matrix(0.4201 -0.9075 0.9075 0.4201 69.1404 529.8133)" class="st3" cx="449.1" cy="210.8" rx="130.3" ry="146.6"/>
			
				<ellipse transform="matrix(0.4433 -0.8964 0.8964 0.4433 60.6675 520.0052)" class="st3" cx="449" cy="211.2" rx="130.8" ry="147"/>
			
				<ellipse transform="matrix(0.496 -0.8683 0.8683 0.496 41.2706 497.2931)" class="st3" cx="449" cy="213.1" rx="130.6" ry="147"/>
			
				<ellipse transform="matrix(0.496 -0.8683 0.8683 0.496 41.2706 497.2931)" class="st3" cx="449" cy="213.1" rx="130.6" ry="147"/>
			
				<ellipse transform="matrix(0.496 -0.8683 0.8683 0.496 41.2706 497.2931)" class="st3" cx="449" cy="213.1" rx="130.6" ry="147"/>
			
				<ellipse transform="matrix(0.618 -0.7862 0.7862 0.618 1.2014 437.2104)" class="st3" cx="450.5" cy="217.4" rx="132.6" ry="150.3"/>
			
				<ellipse transform="matrix(0.618 -0.7862 0.7862 0.618 1.2014 437.2104)" class="st3" cx="450.5" cy="217.4" rx="132.6" ry="150.3"/>
			
				<ellipse transform="matrix(0.6395 -0.7688 0.7688 0.6395 -5.3628 424.0638)" class="st3" cx="449.5" cy="217.8" rx="131.8" ry="150"/>
			
				<ellipse transform="matrix(0.6395 -0.7688 0.7688 0.6395 -5.3628 424.0638)" class="st3" cx="449.5" cy="217.8" rx="131.8" ry="150"/>
			
				<ellipse transform="matrix(0.6591 -0.752 0.752 0.6591 -10.9159 411.3961)" class="st3" cx="448.4" cy="217.7" rx="131.1" ry="149.6"/>
			
				<ellipse transform="matrix(0.6591 -0.752 0.752 0.6591 -10.9159 411.3961)" class="st3" cx="448.4" cy="217.7" rx="131.1" ry="149.6"/>
			
				<ellipse transform="matrix(0.6591 -0.752 0.752 0.6591 -10.9159 411.3961)" class="st3" cx="448.4" cy="217.7" rx="131.1" ry="149.6"/>
			
				<ellipse transform="matrix(0.6955 -0.7185 0.7185 0.6955 -20.9941 387.3131)" class="st3" cx="446.5" cy="218.4" rx="129.7" ry="149.1"/>
			
				<ellipse transform="matrix(0.6955 -0.7185 0.7185 0.6955 -20.9941 387.3131)" class="st3" cx="446.5" cy="218.4" rx="129.7" ry="149.1"/>
			
				<ellipse transform="matrix(0.6955 -0.7185 0.7185 0.6955 -20.9941 387.3131)" class="st3" cx="446.5" cy="218.4" rx="129.7" ry="149.1"/>
			
				<ellipse transform="matrix(0.7411 -0.6714 0.6714 0.7411 -32.6627 354.7827)" class="st3" cx="443.7" cy="219.7" rx="127.3" ry="148.3"/>
			
				<ellipse transform="matrix(0.765 -0.644 0.644 0.765 -37.7804 335.9506)" class="st3" cx="441.5" cy="219.7" rx="125.5" ry="148"/>
			
				<ellipse transform="matrix(0.8116 -0.5841 0.5841 0.8116 -47.1423 296.6844)" class="st3" cx="436.5" cy="221.4" rx="121.1" ry="147.2"/>
			
				<ellipse transform="matrix(0.8195 -0.573 0.573 0.8195 -48.3986 290.5412)" class="st3" cx="437.1" cy="222.1" rx="120.5" ry="147.4"/>
			
				<ellipse transform="matrix(0.8523 -0.523 0.523 0.8523 -53.3825 257.4861)" class="st3" cx="429.3" cy="223.3" rx="114.6" ry="146.6"/>
			
				<ellipse transform="matrix(0.8669 -0.4985 0.4985 0.8669 -55.3182 239.5269)" class="st3" cx="420.8" cy="223.3" rx="107.5" ry="141"/>
			
				<ellipse transform="matrix(0.8831 -0.4692 0.4692 0.8831 -55.4979 220.292)" class="st3" cx="414.3" cy="221.5" rx="101.6" ry="140.7"/>
			
				<ellipse transform="matrix(0.9044 -0.4268 0.4268 0.9044 -56.148 191.2293)" class="st3" cx="398.6" cy="220.9" rx="87.5" ry="135.9"/>
			
				<ellipse transform="matrix(0.9044 -0.4268 0.4268 0.9044 -54.9329 188.8971)" class="st3" cx="394" cy="217" rx="84.4" ry="131.2"/>
			
				<ellipse transform="matrix(0.9126 -0.4089 0.4089 0.9126 -55.2626 177.2267)" class="st3" cx="386.8" cy="217.8" rx="77.3" ry="131"/>
			
				<ellipse transform="matrix(0.9192 -0.3939 0.3939 0.9192 -55.9798 167.3461)" class="st3" cx="379.7" cy="220.1" rx="70.2" ry="130.9"/>
			
				<ellipse transform="matrix(0.923 -0.3848 0.3848 0.923 -56.3355 160.8063)" class="st3" cx="373.7" cy="221.2" rx="64" ry="130.8"/>
			
				<ellipse transform="matrix(0.9274 -0.3741 0.3741 0.9274 -55.3188 150.5755)" class="st3" cx="360.3" cy="217.8" rx="52.7" ry="124.1"/>
			
				<ellipse transform="matrix(0.9299 -0.3679 0.3679 0.9299 -55.4245 145.3503)" class="st3" cx="353.5" cy="218" rx="46.5" ry="122.3"/>
			
				<ellipse transform="matrix(0.9311 -0.3648 0.3648 0.9311 -55.5747 142.7889)" class="st3" cx="350.1" cy="218.5" rx="43.4" ry="121.3"/>
			
				<ellipse transform="matrix(0.9304 -0.3664 0.3664 0.9304 -54.6622 142.1929)" class="st3" cx="347.2" cy="215.1" rx="40.4" ry="119.6"/>
			
				<ellipse transform="matrix(0.9329 -0.3602 0.3602 0.9329 -55.3535 137.4932)" class="st3" cx="341.2" cy="217.3" rx="35.1" ry="118.6"/>
			
				<ellipse transform="matrix(0.9335 -0.3587 0.3587 0.9335 -55.5722 135.7925)" class="st3" cx="338.2" cy="217.7" rx="32" ry="118.6"/>
			
				<ellipse transform="matrix(0.9347 -0.3555 0.3555 0.9347 -55.6642 132.7908)" class="st3" cx="333.5" cy="217.8" rx="27.9" ry="116.9"/>
			
				<ellipse transform="matrix(0.9352 -0.354 0.354 0.9352 -55.7669 130.6014)" class="st3" cx="329.1" cy="217.7" rx="23.8" ry="116"/>
			
				<ellipse transform="matrix(0.9358 -0.3525 0.3525 0.9358 -55.7321 128.2757)" class="st3" cx="324.4" cy="217.2" rx="19.6" ry="114.2"/>
			
				<ellipse transform="matrix(0.9358 -0.3525 0.3525 0.9358 -55.5283 127.7966)" class="st3" cx="323.2" cy="216.4" rx="18.6" ry="113.4"/>
			
				<ellipse transform="matrix(0.9364 -0.3509 0.3509 0.9364 -55.8334 125.6389)" class="st3" cx="318.8" cy="216.9" rx="14.5" ry="112.5"/>
			
				<ellipse transform="matrix(0.9364 -0.3509 0.3509 0.9364 -55.5034 124.6371)" class="st3" cx="316.1" cy="215.5" rx="12.4" ry="110.7"/>
			
				<ellipse transform="matrix(0.9364 -0.3509 0.3509 0.9364 -55.5245 123.4835)" class="st3" cx="312.9" cy="214.9" rx="9.3" ry="109.9"/>
			
				<ellipse transform="matrix(0.937 -0.3493 0.3493 0.937 -55.5652 121.5279)" class="st3" cx="309.1" cy="214.8" rx="6.2" ry="108.1"/>
			
				<ellipse transform="matrix(0.937 -0.3494 0.3494 0.937 -55.3783 120.205)" class="st3" cx="305.6" cy="213.6" rx="3.1" ry="106.4"/>
			
				<ellipse transform="matrix(0.937 -0.3494 0.3494 0.937 -55.0868 117.8804)" class="st3" cx="299.3" cy="211.7" rx="2.1" ry="102.8"/>
			
				<ellipse transform="matrix(0.937 -0.3493 0.3493 0.937 -54.7825 116.3633)" class="st3" cx="295.2" cy="210.1" rx="5.2" ry="100.2"/>
			
				<ellipse transform="matrix(0.9364 -0.3509 0.3509 0.9364 -54.4887 114.6562)" class="st3" cx="289.1" cy="207.7" rx="10.3" ry="96.8"/>
			
				<ellipse transform="matrix(0.9358 -0.3524 0.3524 0.9358 -54.4124 112.3905)" class="st3" cx="281.5" cy="205.6" rx="16.5" ry="92.4"/>
			
				<ellipse transform="matrix(0.9341 -0.3571 0.3571 0.9341 -54.8753 110.974)" class="st3" cx="273.1" cy="204.1" rx="23.8" ry="88.9"/>
			
				<ellipse transform="matrix(0.9299 -0.3679 0.3679 0.9299 -55.4923 110.8959)" class="st3" cx="263.1" cy="201" rx="32" ry="83.7"/>
			
				<ellipse transform="matrix(0.9205 -0.3909 0.3909 0.9205 -57.4579 114.498)" class="st3" cx="252.6" cy="198.4" rx="41.3" ry="79.4"/>
			
				<ellipse transform="matrix(0.9099 -0.4149 0.4149 0.9099 -59.3559 119.909)" class="st3" cx="246.3" cy="196.6" rx="46.4" ry="76.1"/>
			
				<ellipse transform="matrix(0.8471 -0.5314 0.5314 0.8471 -67.2806 154.154)" class="st3" cx="234.3" cy="194" rx="56.2" ry="71.4"/>
			
				<ellipse transform="matrix(0.7787 -0.6274 0.6274 0.7787 -71.0649 187.3108)" class="st3" cx="230" cy="194.4" rx="59.8" ry="71"/>
			
				<ellipse transform="matrix(0.4383 -0.8988 0.8988 0.4383 -47.5084 309.4461)" class="st3" cx="223.8" cy="192.7" rx="62.4" ry="70.2"/>
			
				<ellipse transform="matrix(0.2759 -0.9612 0.9612 0.2759 -24.4363 351.9884)" class="st3" cx="221.4" cy="192.2" rx="62.6" ry="71.1"/>
			<ellipse class="st3" cx="213.9" cy="192.3" rx="77" ry="62.3"/>
			
				<ellipse transform="matrix(0.9951 -9.841426e-02 9.841426e-02 0.9951 -17.9738 21.2512)" class="st3" cx="206.4" cy="192.8" rx="84" ry="61.7"/>
			
				<ellipse transform="matrix(0.9903 -0.1386 0.1386 0.9903 -24.786 29.6587)" class="st3" cx="200.6" cy="192.8" rx="89.1" ry="60.1"/>
			
				<ellipse transform="matrix(0.9824 -0.1867 0.1867 0.9824 -32.136 38.5392)" class="st3" cx="188.6" cy="189.9" rx="99.2" ry="54.8"/>
			
				<ellipse transform="matrix(0.9791 -0.2035 0.2035 0.9791 -35.9142 39.1339)" class="st3" cx="172.3" cy="194.2" rx="115.8" ry="54.9"/>
			
				<ellipse transform="matrix(0.978 -0.2086 0.2086 0.978 -37.0903 38.9938)" class="st3" cx="166.3" cy="195.3" rx="122.1" ry="54.9"/>
			
				<ellipse transform="matrix(0.9773 -0.2119 0.2119 0.9773 -38.3083 38.0034)" class="st3" cx="158.1" cy="197.7" rx="130.4" ry="54.9"/>
			
				<ellipse transform="matrix(0.9754 -0.2203 0.2203 0.9754 -39.0484 37.9215)" class="st3" cx="150.5" cy="194" rx="136.7" ry="50"/>
			<ellipse transform="matrix(0.975 -0.222 0.222 0.975 -39.7921 36.9536)" class="st3" cx="144.5" cy="195.5" rx="142.9" ry="50"/>
			<ellipse transform="matrix(0.9751 -0.222 0.222 0.9751 -39.9986 36.1572)" class="st3" cx="140.9" cy="196" rx="146" ry="49.2"/>
			
				<ellipse transform="matrix(0.9743 -0.2253 0.2253 0.9743 -40.8302 35.1754)" class="st3" cx="133.7" cy="196.4" rx="153.3" ry="48.3"/>
			
				<ellipse transform="matrix(0.9743 -0.2253 0.2253 0.9743 -40.9054 34.9479)" class="st3" cx="132.6" cy="196.7" rx="154.3" ry="48.3"/>
			
				<ellipse transform="matrix(0.9735 -0.2287 0.2287 0.9735 -40.8152 34.1781)" class="st3" cx="127.1" cy="193.2" rx="158.5" ry="43.6"/>
			
				<ellipse transform="matrix(0.9735 -0.2287 0.2287 0.9735 -41.1009 33.477)" class="st3" cx="123.9" cy="194.1" rx="161.6" ry="43.6"/>
			
				<ellipse transform="matrix(0.9735 -0.2287 0.2287 0.9735 -41.3012 33.0276)" class="st3" cx="121.9" cy="194.7" rx="163.7" ry="43.6"/>
			
				<ellipse transform="matrix(0.9735 -0.2287 0.2287 0.9735 -41.4787 32.5758)" class="st3" cx="119.8" cy="195.3" rx="165.7" ry="43.7"/>
			
				<ellipse transform="matrix(0.9735 -0.2287 0.2287 0.9735 -41.4787 32.5758)" class="st3" cx="119.8" cy="195.3" rx="165.7" ry="43.7"/>
			
				<ellipse transform="matrix(0.9735 -0.2287 0.2287 0.9735 -41.4787 32.5758)" class="st3" cx="119.8" cy="195.3" rx="165.7" ry="43.7"/>
			
				<ellipse transform="matrix(0.9735 -0.2287 0.2287 0.9735 -41.4787 32.5758)" class="st3" cx="119.8" cy="195.3" rx="165.7" ry="43.7"/>
			
				<ellipse transform="matrix(0.9735 -0.2287 0.2287 0.9735 -41.4787 32.5758)" class="st3" cx="119.8" cy="195.3" rx="165.7" ry="43.7"/>
			
				<ellipse transform="matrix(0.9735 -0.2287 0.2287 0.9735 -41.4787 32.5758)" class="st3" cx="119.8" cy="195.3" rx="165.7" ry="43.7"/>
			
				<ellipse transform="matrix(0.9735 -0.2287 0.2287 0.9735 -41.4787 32.5758)" class="st3" cx="119.8" cy="195.3" rx="165.7" ry="43.7"/>
			
				<ellipse transform="matrix(0.9735 -0.2287 0.2287 0.9735 -41.4787 32.5758)" class="st3" cx="119.8" cy="195.3" rx="165.7" ry="43.7"/>
			
				<ellipse transform="matrix(0.9735 -0.2287 0.2287 0.9735 -41.4787 32.5758)" class="st3" cx="119.8" cy="195.3" rx="165.7" ry="43.7"/>
			
				<ellipse transform="matrix(0.9735 -0.2287 0.2287 0.9735 -41.5564 32.3459)" class="st3" cx="118.8" cy="195.5" rx="166.8" ry="43.7"/>
			
				<ellipse transform="matrix(0.9735 -0.2287 0.2287 0.9735 -41.5564 32.3459)" class="st3" cx="118.8" cy="195.5" rx="166.8" ry="43.7"/>
			
				<ellipse transform="matrix(0.9735 -0.2287 0.2287 0.9735 -41.5564 32.3459)" class="st3" cx="118.8" cy="195.5" rx="166.8" ry="43.7"/>
			
				<ellipse transform="matrix(0.9735 -0.2287 0.2287 0.9735 -41.5564 32.3459)" class="st3" cx="118.8" cy="195.5" rx="166.8" ry="43.7"/>
			
				<ellipse transform="matrix(0.9735 -0.2287 0.2287 0.9735 -41.5564 32.3459)" class="st3" cx="118.8" cy="195.5" rx="166.8" ry="43.7"/>
			
				<ellipse transform="matrix(0.9735 -0.2287 0.2287 0.9735 -41.5564 32.3459)" class="st3" cx="118.8" cy="195.5" rx="166.8" ry="43.7"/>
			
				<ellipse transform="matrix(0.9735 -0.2287 0.2287 0.9735 -41.5564 32.3459)" class="st3" cx="118.8" cy="195.5" rx="166.8" ry="43.7"/>
			
				<ellipse transform="matrix(0.9735 -0.2287 0.2287 0.9735 -41.5564 32.3459)" class="st3" cx="118.8" cy="195.5" rx="166.8" ry="43.7"/>
			
				<ellipse transform="matrix(0.9735 -0.2287 0.2287 0.9735 -41.5564 32.3459)" class="st3" cx="118.8" cy="195.5" rx="166.8" ry="43.7"/>
			
				<ellipse transform="matrix(0.9735 -0.2287 0.2287 0.9735 -41.5564 32.3459)" class="st3" cx="118.8" cy="195.5" rx="166.8" ry="43.7"/>
			
				<ellipse transform="matrix(0.9735 -0.2287 0.2287 0.9735 -41.5564 32.3459)" class="st3" cx="118.8" cy="195.5" rx="166.8" ry="43.7"/>
			
				<ellipse transform="matrix(0.9735 -0.2287 0.2287 0.9735 -41.5564 32.3459)" class="st3" cx="118.8" cy="195.5" rx="166.8" ry="43.7"/>
			
				<ellipse transform="matrix(0.9735 -0.2287 0.2287 0.9735 -41.5564 32.3459)" class="st3" cx="118.8" cy="195.5" rx="166.8" ry="43.7"/>
			
				<ellipse transform="matrix(0.9735 -0.2287 0.2287 0.9735 -41.5564 32.3459)" class="st3" cx="118.8" cy="195.5" rx="166.8" ry="43.7"/>
			
				<ellipse transform="matrix(0.9735 -0.2287 0.2287 0.9735 -41.5564 32.3459)" class="st3" cx="118.8" cy="195.5" rx="166.8" ry="43.7"/>
			
				<ellipse transform="matrix(0.9735 -0.2287 0.2287 0.9735 -41.5564 32.3459)" class="st3" cx="118.8" cy="195.5" rx="166.8" ry="43.7"/>
		</g>
	</g>
</g>
</svg>
