<?xml version="1.0" encoding="utf-8"?>
<!-- Generator: Adobe Illustrator 21.0.2, SVG Export Plug-In . SVG Version: 6.00 Build 0)  -->
<svg version="1.1" id="Layer_1" xmlns="http://www.w3.org/2000/svg" xmlns:xlink="http://www.w3.org/1999/xlink" x="0px" y="0px"
	 viewBox="0 0 50 50" style="enable-background:new 0 0 50 50;" xml:space="preserve">
<style type="text/css">
	.st0{fill:#DC143C;}
	.st1{fill:#FFFFFF;}
	.st2{fill:#F2F2F2;}
	.st3{fill:#CCCCCC;}
</style>
<g>
	<path class="st0" d="M29.19,4.54c0.02,0,0.04,0.01,0.07,0.02C29.23,4.55,29.21,4.54,29.19,4.54z"/>
	<path class="st0" d="M45.67,22.86C44.93,15.52,40.4,9.33,34.08,6.23C40.39,9.33,44.93,15.52,45.67,22.86z"/>
	<path class="st0" d="M35.01,43.3c6.41-3.56,10.76-10.41,10.76-18.3v0C45.78,32.88,41.43,39.74,35.01,43.3z"/>
	<path class="st3" d="M25,0C11.21,0,0,11.21,0,25s11.21,25,25,25s25-11.21,25-25S38.79,0,25,0z M35.01,43.3
		c-2.97,1.65-6.38,2.59-10.01,2.59c-5.36,0-10.23-2.06-13.92-5.41c-2.62-2.39-4.64-5.43-5.78-8.88c-0.13-0.38-0.23-0.77-0.34-1.16
		C4.49,28.7,4.22,26.88,4.22,25v0c0-0.72,0.04-1.43,0.11-2.14c0.09-0.85,0.24-1.67,0.42-2.48c0.23-1.03,0.54-2.03,0.92-3
		c1.05-2.7,2.63-5.14,4.64-7.15C14.07,6.45,19.26,4.11,25,4.11c1.43,0,2.84,0.15,4.19,0.42c0.02,0,0.04,0.01,0.07,0.02
		c1.7,0.36,3.31,0.94,4.83,1.68c6.31,3.09,10.85,9.29,11.59,16.63c0.07,0.7,0.11,1.41,0.11,2.14v0
		C45.78,32.88,41.43,39.74,35.01,43.3z"/>
	<path class="st2" d="M45.78,25c0-0.72-0.04-1.43-0.11-2.14c-0.74-7.34-5.28-13.54-11.59-16.63c-1.52-0.74-3.13-1.33-4.83-1.68
		c-0.02,0-0.04-0.01-0.07-0.02C27.83,4.26,26.43,4.11,25,4.11c-5.74,0-10.93,2.34-14.69,6.12c-2.01,2.02-3.59,4.45-4.64,7.15
		c-0.38,0.97-0.69,1.97-0.92,3c-0.18,0.81-0.33,1.64-0.42,2.48c-0.07,0.7-0.11,1.41-0.11,2.14c0,1.88,0.27,3.7,0.74,5.43
		c0.1,0.39,0.21,0.78,0.34,1.16c1.14,3.45,3.16,6.49,5.78,8.88c3.69,3.35,8.56,5.41,13.92,5.41c3.63,0,7.04-0.94,10.01-2.59
		C41.43,39.74,45.78,32.88,45.78,25z"/>
	<path class="st2" d="M29.19,4.54C27.83,4.26,26.43,4.11,25,4.11c-5.74,0-10.93,2.34-14.69,6.12C14.07,6.45,19.26,4.11,25,4.11
		C26.43,4.11,27.83,4.26,29.19,4.54z"/>
	<path class="st2" d="M45.78,25c0-0.72-0.04-1.43-0.11-2.14C45.74,23.57,45.78,24.28,45.78,25L45.78,25z"/>
	<path class="st2" d="M11.08,40.47c3.69,3.35,8.56,5.41,13.92,5.41c3.63,0,7.04-0.94,10.01-2.59c-2.97,1.65-6.38,2.59-10.01,2.59
		C19.64,45.89,14.76,43.83,11.08,40.47z"/>
	<path class="st2" d="M29.25,4.55c1.7,0.36,3.31,0.94,4.83,1.68C32.56,5.49,30.95,4.91,29.25,4.55z"/>
</g>
<path class="st0" d="M37.03,18.88h-6.07c-0.32-2.07-2.12-4.27-4.29-4.27h-3.34c-2.17,0-3.97,2.19-4.29,4.27h0h-6.07V33.7h24.06h0
	L37.03,18.88L37.03,18.88z M23.33,16.29h3.34c1.06,0,1.95,1.63,2.24,2.59h-7.82C21.38,17.92,22.27,16.29,23.33,16.29z"/>
</svg>
