<svg id="Layer_1" data-name="Layer 1" xmlns="http://www.w3.org/2000/svg" viewBox="0 0 100 100"><defs><style>.cls-1{fill:#e04b4b;}.cls-2{fill:#38384f;}.cls-3{fill:#f4a2a2;}.cls-4{fill:#ad1212;}</style></defs><title>Untitled-4</title><path class="cls-1" d="M38.3,26.7A5.1,5.1,0,0,0,33.6,30H16.4a5.1,5.1,0,0,0-4.7-3.3,5,5,0,0,0-5,5,5,5,0,0,0,9.7,1.6H33.6a5,5,0,0,0,9.7-1.6A5,5,0,0,0,38.3,26.7ZM11.7,33.3A1.6,1.6,0,0,1,10,31.7,1.6,1.6,0,0,1,11.7,30a1.6,1.6,0,0,1,1.6,1.7A1.6,1.6,0,0,1,11.7,33.3Zm26.6,0a1.6,1.6,0,0,1-1.6-1.6A1.6,1.6,0,0,1,38.3,30,1.6,1.6,0,0,1,40,31.7,1.6,1.6,0,0,1,38.3,33.3Z"/><path class="cls-2" d="M51.7,37V26.7a1.7,1.7,0,0,0-.5-1.2l-6.7-6.7a1.7,1.7,0,0,0-1.2-.5H38a5,5,0,1,0,0,3.4h4.6l5.7,5.7V37a5,5,0,1,0,3.4,0ZM33.3,21.7a1.7,1.7,0,0,1,0-3.4,1.7,1.7,0,1,1,0,3.4ZM50,43.3a1.7,1.7,0,0,1-1.7-1.6,1.7,1.7,0,0,1,3.4,0A1.7,1.7,0,0,1,50,43.3Z"/><path class="cls-2" d="M81.7,43.3a5.4,5.4,0,0,0-2.2.5L76.7,41V25a1.8,1.8,0,0,0-.5-1.2L59.5,7.1A4.6,4.6,0,0,0,60,5,5,5,0,0,0,50,5a5,5,0,0,0,5,5,4.6,4.6,0,0,0,2.1-.5L73.3,25.7v16a1.6,1.6,0,0,0,.5,1.1l3.4,3.4a5,5,0,1,0,9.5,2.1A5.1,5.1,0,0,0,81.7,43.3ZM55,6.7A1.8,1.8,0,0,1,53.3,5a1.7,1.7,0,0,1,3.4,0A1.8,1.8,0,0,1,55,6.7ZM81.7,50A1.6,1.6,0,0,1,80,48.3a1.6,1.6,0,0,1,1.7-1.6,1.6,1.6,0,0,1,1.6,1.6A1.6,1.6,0,0,1,81.7,50Z"/><path class="cls-3" d="M96.7,23.6V16.7a1.7,1.7,0,0,0-.5-1.2L84.5,3.8a1.7,1.7,0,0,0-1.2-.5H74.7a5,5,0,1,0,0,3.4h7.9L93.3,17.4v6.2A5.1,5.1,0,0,0,90,28.3a5,5,0,0,0,10,0A5.1,5.1,0,0,0,96.7,23.6ZM70,6.7A1.8,1.8,0,0,1,68.3,5a1.7,1.7,0,0,1,3.4,0A1.8,1.8,0,0,1,70,6.7ZM95,30a1.7,1.7,0,0,1-1.7-1.7,1.7,1.7,0,0,1,3.4,0A1.7,1.7,0,0,1,95,30Z"/><path class="cls-4" d="M73.3,90.3V66.4a5,5,0,0,0-1.6-9.7A5,5,0,0,0,67,60H49.7a5,5,0,0,0-9.4,0H30.7l-6.2-6.2A5,5,0,1,0,20,56.7a4.6,4.6,0,0,0,2.1-.5l6.7,6.6a1.5,1.5,0,0,0,1.2.5H40.3a4.9,4.9,0,0,0,9.4,0H67a5.1,5.1,0,0,0,3,3.1V90.3a5.1,5.1,0,1,0,3.3,0ZM20,53.3a1.7,1.7,0,0,1-1.7-1.6,1.7,1.7,0,1,1,3.4,0A1.7,1.7,0,0,1,20,53.3Zm25,10a1.7,1.7,0,0,1-1.7-1.6,1.7,1.7,0,0,1,3.4,0A1.7,1.7,0,0,1,45,63.3ZM71.7,96.7a1.7,1.7,0,1,1,0-3.4,1.7,1.7,0,0,1,0,3.4Zm0-33.4A1.6,1.6,0,0,1,70,61.7,1.6,1.6,0,0,1,71.7,60a1.6,1.6,0,0,1,1.6,1.7A1.6,1.6,0,0,1,71.7,63.3Z"/><path class="cls-1" d="M65,33.6V28.3a1.6,1.6,0,0,0-.5-1.1L44.5,7.1A4.6,4.6,0,0,0,45,5a5,5,0,0,0-9.7-1.7h-7A1.7,1.7,0,0,0,26.7,5V9.3l-6.2,6.2a5.4,5.4,0,0,0-2.2-.5,5,5,0,1,0,0,10,5,5,0,0,0,5-5,4.6,4.6,0,0,0-.5-2.1l6.7-6.7A1.8,1.8,0,0,0,30,10V6.7h5.3A5,5,0,0,0,40,10a4.6,4.6,0,0,0,2.1-.5L61.7,29v4.6a5,5,0,0,0,1.6,9.7,5,5,0,0,0,5-5A5.1,5.1,0,0,0,65,33.6ZM18.3,21.7a1.7,1.7,0,0,1,0-3.4,1.7,1.7,0,0,1,0,3.4ZM40,6.7A1.8,1.8,0,0,1,38.3,5a1.7,1.7,0,0,1,3.4,0A1.8,1.8,0,0,1,40,6.7ZM63.3,40a1.6,1.6,0,0,1-1.6-1.7,1.6,1.6,0,0,1,1.6-1.6A1.6,1.6,0,0,1,65,38.3,1.6,1.6,0,0,1,63.3,40Z"/><path class="cls-2" d="M60,46.7A5,5,0,0,0,55.3,50H35.7l-9.5-9.5A1.8,1.8,0,0,0,25,40H7.4L3.3,36V22.4L16.2,9.5A4.9,4.9,0,0,0,23.3,5a5,5,0,0,0-5-5,5,5,0,0,0-5,5,4.6,4.6,0,0,0,.5,2.1L.5,20.5A1.7,1.7,0,0,0,0,21.7v15a1.6,1.6,0,0,0,.5,1.1l5,5a1.3,1.3,0,0,0,1.2.5H24.3l9.5,9.5a1.5,1.5,0,0,0,1.2.5H55.3A5,5,0,0,0,60,56.7a5,5,0,0,0,5-5A5,5,0,0,0,60,46.7ZM18.3,3.3a1.7,1.7,0,0,1,0,3.4A1.7,1.7,0,0,1,16.7,5,1.7,1.7,0,0,1,18.3,3.3ZM60,53.3a1.7,1.7,0,0,1-1.7-1.6,1.7,1.7,0,0,1,3.4,0A1.7,1.7,0,0,1,60,53.3Z"/><path class="cls-2" d="M95,40a4.6,4.6,0,0,0-2.1.5l-6.2-6.2V24.7a5,5,0,1,0-3.4,0V35a1.8,1.8,0,0,0,.5,1.2l6.7,6.7A4.6,4.6,0,0,0,90,45a5,5,0,0,0,3.3,4.7V51L80.5,63.8A1.8,1.8,0,0,0,80,65v2a5,5,0,0,0-3.3,4.7A5.1,5.1,0,0,0,80,76.4v3.9a5.1,5.1,0,1,0,3.3,0V76.4a5.1,5.1,0,0,0,3.4-4.7A5,5,0,0,0,83.3,67V65.7L96.2,52.8a1.6,1.6,0,0,0,.5-1.1v-2A5,5,0,0,0,95,40ZM85,21.7A1.7,1.7,0,1,1,86.7,20,1.8,1.8,0,0,1,85,21.7Zm-3.3,65a1.7,1.7,0,1,1,0-3.4,1.7,1.7,0,0,1,0,3.4Zm0-13.4A1.6,1.6,0,0,1,80,71.7,1.6,1.6,0,0,1,81.7,70a1.6,1.6,0,0,1,1.6,1.7A1.6,1.6,0,0,1,81.7,73.3ZM95,46.7A1.7,1.7,0,1,1,96.7,45,1.8,1.8,0,0,1,95,46.7Z"/></svg>