<?xml version="1.0" encoding="utf-8"?>
<!-- Generator: Adobe Illustrator 21.0.2, SVG Export Plug-In . SVG Version: 6.00 Build 0)  -->
<svg version="1.1" id="Layer_1" xmlns="http://www.w3.org/2000/svg" xmlns:xlink="http://www.w3.org/1999/xlink" x="0px" y="0px"
	 viewBox="0 0 50 50" style="enable-background:new 0 0 50 50;" xml:space="preserve">
<style type="text/css">
	.st0{fill:#DC143C;}
	.st1{fill:#FFFFFF;}
	.st2{fill:#F2F2F2;}
	.st3{fill:#CCCCCC;}
</style>
<g>
	<g>
		<path class="st1" d="M12.11,38.93v-2.13c0-6.88,4.52-9,7.21-10.27c0.12-0.06,0.26-0.12,0.4-0.19c-1.69-1.76-2.7-4.32-2.7-7.08
			c0-5.2,3.58-9.42,7.98-9.42s7.98,4.23,7.98,9.42c0,2.76-1.01,5.32-2.7,7.08c0.14,0.07,0.27,0.13,0.39,0.19
			c2.7,1.27,7.21,3.38,7.21,10.27v2.13H12.11z"/>
		<path class="st1" d="M25,11.97c3.23,0,5.85,3.26,5.85,7.29c0,3.03-1.48,5.63-3.59,6.73l0.2,1.06c1.67,1.94,8.3,2.07,8.3,9.75
			H25.08h-0.15H14.24c0-7.81,6.86-7.81,8.38-9.85l0.17-0.93c-2.14-1.08-3.65-3.7-3.65-6.75C19.15,15.24,21.77,11.97,25,11.97
			 M25,7.71c-5.58,0-10.11,5.18-10.11,11.56c0,2.28,0.59,4.46,1.62,6.29c-2.87,1.6-6.53,4.63-6.53,11.24v4.27h4.27h10.68h0.15h10.68
			h4.27v-4.27c0-6.61-3.67-9.64-6.53-11.24c1.04-1.84,1.63-4.02,1.63-6.29C35.11,12.89,30.58,7.71,25,7.71L25,7.71z"/>
	</g>
	<path class="st0" d="M0.28,28.56c-0.15-1.04-0.24-2.09-0.26-3.16C0.04,26.47,0.13,27.52,0.28,28.56z"/>
	<path class="st0" d="M49.12,18.52c0.22,0.84,0.4,1.69,0.54,2.56C49.52,20.21,49.34,19.35,49.12,18.52z"/>
	<path class="st0" d="M0,25L0,25c0-3.45,0.7-6.74,1.96-9.73C0.7,18.26,0,21.55,0,25z"/>
	<path class="st0" d="M25,0c2.59,0,5.09,0.39,7.43,1.12C30.09,0.39,27.59,0,25,0C15.51,0,7.25,5.29,3.02,13.08
		C7.25,5.29,15.51,0,25,0z"/>
	<path class="st0" d="M50,25c0-0.13-0.02-0.25-0.02-0.38C49.98,24.75,50,24.87,50,25L50,25z"/>
	<path class="st0" d="M9.35,44.48C13.64,47.93,19.07,50,25,50c2.59,0,5.09-0.39,7.43-1.12C30.09,49.61,27.59,50,25,50
		C19.07,50,13.64,47.93,9.35,44.48z"/>
	<path class="st0" d="M50,25c0-0.13-0.02-0.25-0.02-0.38c-0.02-1.21-0.14-2.39-0.32-3.55c-0.14-0.87-0.32-1.72-0.54-2.56
		C46.9,10.25,40.57,3.66,32.43,1.12C30.09,0.39,27.59,0,25,0C15.51,0,7.25,5.29,3.02,13.08c-0.38,0.71-0.74,1.44-1.05,2.19
		C0.7,18.26,0,21.55,0,25c0,0.13,0.02,0.26,0.02,0.4c0.02,1.07,0.11,2.12,0.26,3.16C1.2,34.97,4.53,40.6,9.35,44.48
		C13.64,47.93,19.07,50,25,50c2.59,0,5.09-0.39,7.43-1.12C42.61,45.71,50,36.22,50,25z M25.08,36.79h-0.15H14.24
		c0-7.81,6.86-7.81,8.38-9.85l0.17-0.93c-2.14-1.08-3.65-3.7-3.65-6.75c0-4.03,2.62-7.29,5.85-7.29c3.23,0,5.85,3.26,5.85,7.29
		c0,3.03-1.48,5.63-3.59,6.73l0.2,1.06c1.67,1.94,8.3,2.07,8.3,9.75H25.08z"/>
</g>
</svg>
