<?xml version="1.0" encoding="utf-8"?>
<!-- Generator: Adobe Illustrator 23.0.1, SVG Export Plug-In . SVG Version: 6.00 Build 0)  -->
<svg version="1.1" id="Layer_1" xmlns="http://www.w3.org/2000/svg" xmlns:xlink="http://www.w3.org/1999/xlink" x="0px" y="0px"
	 viewBox="0 0 100 106" style="enable-background:new 0 0 100 106;" xml:space="preserve">
<style type="text/css">
	.st0{fill:#38384F;}
	.st1{fill:#E04B4B;}
	.st2{fill:#AD1212;}
	.st3{fill:#F4A2A2;}
</style>
<title>Untitled-4</title>
<g>
	<path class="st0" d="M87.1,50.7c0-5.1-2.8-9.7-7.3-12c0.5-3.1-0.2-6.4-2-9c-1.9-2.7-4.8-4.5-8.1-5.1c-0.2-2.2-1.2-4.3-2.7-6
		c-2.1-2.2-5-3.5-8.1-3.5c-3.5,0-6.8,1.7-8.9,4.5c-2.1-2.8-5.4-4.5-8.9-4.5c-3.1,0-6,1.3-8.1,3.5c-1.5,1.7-2.5,3.8-2.7,6
		c-3.3,0.6-6.2,2.4-8.1,5.1c-1.8,2.6-2.5,5.9-2,9c-4.5,2.3-7.3,6.9-7.3,12c0,4.4,2.2,8.6,5.8,11.1c-2.1,3.3-2.4,7.4-0.8,11
		c2,4.5,6.4,7.4,11.3,7.5h1.2c0.3,2,1.2,3.9,2.6,5.4c2.1,2.3,5,3.6,8.1,3.6c3.5,0,6.8-1.7,8.9-4.5c2.1,2.8,5.4,4.5,8.9,4.5
		c3.1,0,6-1.3,8.1-3.6c1.4-1.5,2.3-3.4,2.6-5.5h1.2c4.9-0.1,9.3-3,11.3-7.5c1.6-3.6,1.3-7.7-0.8-11C84.9,59.2,87.1,55.1,87.1,50.7z
		 M48,78.7L48,78.7c-0.1,3.8-3.2,6.8-7,6.8c-1.9,0-3.8-0.9-5.1-2.4c-1-1-1.6-2.4-1.7-3.8c2.5-1,4.4-3,5.1-5.6
		c0.6-1.5,0.9-2.2,2.5-2.7c1-0.2,1.7-1.2,1.4-2.3c0,0,0-0.1,0-0.1c-0.3-1-1.3-1.6-2.3-1.3c0,0,0,0-0.1,0c-3.6,0.9-4.5,3.3-5.1,5
		s-1.1,3-3.9,3.7h-0.1c-0.8,0.3-1.6,0.4-2.5,0.4c-3.4-0.1-6.4-2.1-7.7-5.2c-1.3-2.9-0.7-6.4,1.5-8.7c0.4-0.5,0.6-1.1,0.5-1.7
		c-0.1-0.6-0.5-1.1-1.1-1.4c-3.4-1.6-5.6-5-5.6-8.7c0-4.1,2.6-7.7,6.4-9.1c1-0.3,1.5-1.4,1.2-2.4c-0.9-2.4-0.5-5.1,1-7.2
		c1.6-2.2,4.2-3.6,6.9-3.6c3.3,0,4,1.3,5.1,3.1s2.1,4,5.5,4c1.1,0.2,2.1-0.4,2.4-1.5c0.2-1.1-0.4-2.1-1.5-2.4
		c-0.3-0.1-0.6-0.1-0.9,0c-1,0-1.2-0.3-2.1-2s-2.4-4.3-6.5-5c0.2-1.2,0.7-2.4,1.6-3.3c2.5-2.9,6.9-3.2,9.7-0.7
		c1.5,1.3,2.3,3.1,2.4,5.1v26.4c-4.5-0.5-5.7-2.6-7.1-5.1s-3.1-5.7-8.2-6.2c-1-0.1-2,0.7-2.1,1.7c-0.1,1,0.7,2,1.7,2.1l0,0
		c3.1,0.4,3.9,1.9,5.2,4.2c0.4,0.9,0.9,1.8,1.6,2.6c-1.3,1.3-2.8,2.3-4.4,3c-1,0.4-1.4,1.6-0.9,2.5c0,0,0,0.1,0,0.1
		c0.4,0.7,1,1.1,1.8,1.1c0.3,0,0.6,0,0.8-0.2c2-1,3.9-2.3,5.5-3.8c1.8,1.2,3.9,1.8,6.1,1.9V78.7z M77.6,59.4c-0.6,0.3-1,0.8-1.1,1.4
		c-0.1,0.6,0.1,1.2,0.5,1.7c2.2,2.3,2.8,5.8,1.5,8.7c-1.3,3.1-4.3,5.1-7.7,5.2l0,0c-0.9,0-1.7-0.1-2.5-0.4h-0.1
		c-2.8-0.7-3.2-1.9-3.9-3.7s-1.5-4.1-5.1-5c-1-0.3-2.1,0.2-2.4,1.2c0,0,0,0,0,0.1c-0.3,1,0.3,2.1,1.3,2.4c0,0,0.1,0,0.1,0
		c1.6,0.5,1.9,1.2,2.5,2.7c0.7,2.6,2.6,4.6,5.1,5.6c-0.1,1.4-0.7,2.8-1.7,3.8c-2.5,2.9-6.9,3.2-9.7,0.7c-1.5-1.3-2.3-3.1-2.4-5.1
		v-14c0-3.5,1.8-5.2,3.5-5.7s4.4,0.6,5.8,2.9c0.5,0.9,1.7,1.2,2.6,0.7c0,0,0,0,0,0c1-0.5,1.3-1.7,0.8-2.7c-2.3-3.8-6.3-5.7-10.2-4.7
		c-0.9,0.3-1.7,0.7-2.5,1.2V43.8c4.1,0.4,5.3,1.9,6.8,3.7c1.4,2.2,3.6,3.8,6.1,4.5h0.6c0.8,0,1.6-0.5,1.8-1.3c0.4-1-0.1-2.1-1.1-2.5
		c0,0-0.1,0-0.1,0c-1.7-0.6-3.2-1.7-4.3-3.2C60,42.8,58,40.4,52,39.9V25.7c0.1-3.8,3.2-6.8,7-6.8c1.9,0,3.8,0.9,5.1,2.4
		c0.9,0.9,1.4,2.1,1.6,3.3c-4.1,0.7-5.5,3.3-6.5,5s-1.1,2-2.1,2c-1.1-0.2-2.1,0.4-2.4,1.5c-0.2,1.1,0.4,2.1,1.5,2.4
		c0.3,0.1,0.6,0.1,0.9,0c3.4,0,4.6-2.3,5.5-4c0.9-1.7,1.8-3.1,5.1-3.1c2.7,0,5.3,1.4,6.9,3.6c1.5,2.1,1.9,4.8,1,7.2
		c-0.3,1,0.2,2.1,1.2,2.4c3.8,1.4,6.4,5,6.4,9.1C83.2,54.5,81,57.9,77.6,59.4z"/>
	<path class="st1" d="M71.7,50.8L71.7,50.8c-1.2,0-2.1,0.9-2.1,2s0.9,2,2,2h0.1c1.1,0,2-0.9,2-2S72.8,50.8,71.7,50.8z"/>
	<path class="st1" d="M31.7,59.5c-0.3-1-1.3-1.6-2.3-1.5h-0.1c-1.1,0.2-1.7,1.3-1.5,2.4c0,0,0,0,0,0c0.2,0.9,1,1.5,1.9,1.5h0.4
		C31.2,61.7,31.9,60.7,31.7,59.5C31.7,59.6,31.7,59.6,31.7,59.5z"/>
	<path class="st1" d="M50,2.2c-1.1,0-2,0.9-2,2v3.9c0,1.1,0.9,2,2,2s2-0.9,2-2V4.2C52,3.1,51.1,2.2,50,2.2z"/>
	<path class="st2" d="M29.6,13l-1.9-3.4c-0.6-0.9-1.8-1.2-2.7-0.7c-0.9,0.5-1.3,1.6-0.8,2.6c0,0,0,0.1,0.1,0.1l1.9,3.3
		c0.4,0.6,1,1,1.7,1l1-0.2C29.8,15.2,30.1,14,29.6,13z"/>
	<path class="st2" d="M12.7,28.4l-3.3-1.9c-0.9-0.6-2.1-0.3-2.6,0.6c0,0-0.1,0.1-0.1,0.1c-0.5,0.9-0.2,2.1,0.7,2.7l3.4,1.9
		c0.3,0.2,0.6,0.3,1,0.3c0.7,0,1.3-0.4,1.7-1C14,30.2,13.7,29,12.7,28.4z"/>
	<path class="st1" d="M5.9,50.2H2c-1.1,0-2,0.9-2,2c0,1,0.8,1.9,1.9,1.9c0,0,0.1,0,0.1,0h3.9c1,0,1.9-0.9,1.9-1.9l0,0
		C7.8,51.2,7,50.3,5.9,50.2z"/>
	<path class="st1" d="M13.5,73.3c-0.5-0.9-1.6-1.3-2.6-0.8c0,0-0.1,0-0.1,0.1l-3.4,1.9c-0.9,0.6-1.2,1.8-0.6,2.8
		c0.4,0.6,1,0.9,1.6,0.9c0.4,0,0.7-0.1,1-0.3l3.3-2C13.6,75.5,14,74.3,13.5,73.3C13.5,73.4,13.5,73.3,13.5,73.3z"/>
	<path class="st2" d="M28.9,88.7c-0.9-0.5-2.1-0.2-2.7,0.7l-1.9,3.4c-0.5,0.9-0.2,2.1,0.7,2.7c0.3,0.2,0.7,0.2,1,0.2
		c0.7,0,1.3-0.3,1.7-0.9l1.9-3.4C30.1,90.5,29.8,89.3,28.9,88.7z"/>
	<path class="st2" d="M50,96c-1.1,0-1.9,0.8-2,1.9v3.9c0,1.1,0.9,2,2,2s2-0.9,2-2v-3.9C51.9,96.8,51.1,96,50,96z"/>
	<path class="st3" d="M75.7,92.8l-1.9-3.4c-0.6-0.9-1.8-1.2-2.7-0.7c-0.9,0.6-1.2,1.8-0.7,2.7l1.9,3.4c0.4,0.6,1,0.9,1.7,0.9
		c0.3,0,0.7,0,1-0.2C75.9,95,76.2,93.8,75.7,92.8z"/>
	<path class="st1" d="M92.6,74.5l-3.4-1.9c-0.9-0.6-2.1-0.3-2.6,0.6c0,0-0.1,0.1-0.1,0.1c-0.5,0.9-0.2,2.1,0.8,2.6c0,0,0,0,0,0
		l3.3,2c0.3,0.2,0.6,0.3,1,0.3c1.1,0,2-0.9,1.9-2.1C93.5,75.5,93.2,74.9,92.6,74.5z"/>
	<path class="st3" d="M98,50.2h-3.9c-1.1,0.1-1.9,0.9-1.9,2c0,1,0.9,1.9,1.9,1.9l0,0H98c1,0.1,1.9-0.7,2-1.8c0,0,0-0.1,0-0.1
		C100,51.1,99.1,50.2,98,50.2z"/>
	<path class="st1" d="M93.3,27.2c-0.5-0.9-1.6-1.3-2.6-0.8c0,0-0.1,0-0.1,0.1l-3.3,1.9c-1,0.5-1.3,1.7-0.8,2.7c0.4,0.6,1,1,1.7,1
		c0.4,0,0.7-0.1,1-0.3l3.4-1.9C93.5,29.3,93.8,28.2,93.3,27.2z"/>
	<path class="st2" d="M75,8.9c-0.9-0.5-2.1-0.2-2.7,0.7L70.4,13c-0.5,0.9-0.2,2.1,0.7,2.7l1,0.2c0.7,0,1.3-0.4,1.7-1l1.9-3.3
		c0.6-0.9,0.3-2.1-0.6-2.6C75.1,9,75,9,75,8.9z"/>
</g>
</svg>
