<svg id="Layer_1" data-name="Layer 1" xmlns="http://www.w3.org/2000/svg" viewBox="0 0 171.2 37.6"><defs><style>.cls-1{fill:#fff;}.cls-2{fill:#b20a37;}</style></defs><title>tu-logo</title><polygon class="cls-1" points="164.7 37.5 166.2 37.5 166.2 34 169.7 28.8 167.9 28.8 165.5 32.7 163 28.8 161.2 28.8 164.7 34.1 164.7 37.5 164.7 37.5"/><polygon class="cls-2" points="32.5 37.4 32.5 0 0 0 0 37.4 32.5 37.4 32.5 37.4"/><polygon class="cls-1" points="27.6 2.7 4.9 2.7 2.5 2.7 2.5 4.9 2.5 13.9 4.9 13.9 4.9 4.9 27.6 4.9 27.6 13.7 29.9 13.7 29.9 4.9 29.9 2.7 27.6 2.7 27.6 2.7"/><polygon class="cls-1" points="8.6 27.6 8.6 29.8 12.6 29.8 14.9 29.8 14.9 27.6 14.9 10 14.9 7.7 12.6 7.7 9.9 7.7 7.5 7.7 7.5 10 7.5 13.8 9.9 13.8 9.9 10 12.6 10 12.6 27.6 8.6 27.6 8.6 27.6"/><polygon class="cls-1" points="20 7.7 17.6 7.7 17.6 10 17.6 27.5 17.6 29.8 20 29.8 23.9 29.8 23.9 27.5 20 27.5 20 10 22.7 10 22.7 13.8 25 13.8 25 10 25 7.7 22.7 7.7 20 7.7 20 7.7"/><polygon class="cls-1" points="8.6 34.7 23.9 34.7 23.9 32.5 8.6 32.5 8.6 34.7 8.6 34.7"/><path class="cls-1" d="M64.8,11.5c-.2-2.2-.4-5.2-.4-6.7h-.8a2.1,2.1,0,0,1-2,.9H47.5c-1,0-1.5-.1-2-.9h-.8c-.1,1.9-.3,4.3-.5,6.8h1.2a11.2,11.2,0,0,1,1.4-3.5c.5-.6,1.2-1,4.1-1h1.6V24.2c0,2.9-.4,3.2-3.4,3.4v1.1h11V27.6c-3.2-.2-3.5-.5-3.5-3.4V7.1h1.9c2.3,0,3.1.3,3.7,1a8.6,8.6,0,0,1,1.4,3.4ZM84.4,22.8a13.3,13.3,0,0,1-1.9,3.4c-.8.9-2,1.1-4.1,1.1s-2.8,0-3.4-.4-.9-1.2-.9-2.9V17.7h2.8c3,0,3.4.2,3.9,2.7h1.1v-7H80.8c-.5,2.5-.8,2.7-4,2.7H74.1V8.3c0-1.1.1-1.2,1.4-1.2h2.1c2.2,0,3.1.3,3.7,1a7.7,7.7,0,0,1,1.3,3l1.2-.2c-.1-2-.3-4.5-.4-5.2H67.1V6.8c2.6.2,2.9.4,2.9,3.5V24.1c0,3-.3,3.3-3.4,3.5v1.1H84.3c.3-1,1.1-4.3,1.3-5.7l-1.2-.2Zm32.2,5.9V27.6c-2.9-.3-3-.5-3.1-4l-.4-13.1c0-3.2.1-3.4,3.1-3.7V5.7h-6.8L102,22,94.7,5.7H88V6.8c3.1.3,3.3.7,3,5l-.5,7.1a45.2,45.2,0,0,1-.8,6.6c-.2,1.3-.9,1.9-2.9,2.1v1.1h8.4V27.6c-2.3-.2-3.1-.5-3.2-2.2a38.1,38.1,0,0,1,.1-5.7l.4-9.6h.2l7.4,18.4h.9l8.1-18.8h.2V23.6c0,3.5-.2,3.7-2.9,4v1.1Zm2.5-23V6.8c2.5.3,2.8.5,2.8,3.5V24.1c0,3-.3,3.3-3,3.5v1.1h10.5V27.6c-3.1-.2-3.4-.5-3.4-3.5V19l2.5.6H130c3.7-.5,7.2-2.7,7.2-7.3a6.1,6.1,0,0,0-2.5-5.2c-1.5-1-3.5-1.4-6.2-1.4Zm6.9,3c0-.7.1-1.1.4-1.3a2.2,2.2,0,0,1,1.5-.4c2.4,0,4.8,1.4,4.8,5.4s-2.9,5.7-4.5,5.7a5.7,5.7,0,0,1-2.2-.4v-9Zm29.4,13.9a10.8,10.8,0,0,1-1.9,3.6c-.8.9-2.1,1.1-3.8,1.1a8,8,0,0,1-2.9-.3c-.7-.4-.8-1-.8-2.8V10.3c0-3,.3-3.2,3-3.5V5.7H138.8V6.8c2.8.3,3.1.5,3.1,3.5V24.1c0,3-.4,3.3-3.4,3.5v1.1h16.8c.3-1,1-4.4,1.3-5.8l-1.2-.3Zm20,.2a13.3,13.3,0,0,1-1.9,3.4c-.8.9-2,1.1-4.1,1.1s-2.8,0-3.4-.4-.9-1.2-.9-2.9V17.7h2.8c3,0,3.4.2,3.9,2.7H173v-7h-1.2c-.5,2.5-.8,2.7-4,2.7h-2.7V8.3c0-1.1.1-1.2,1.4-1.2h2.1c2.2,0,3.1.3,3.7,1a7.7,7.7,0,0,1,1.3,3l1.2-.2c-.1-2-.3-4.5-.4-5.2H158.1V6.8c2.6.2,2.9.4,2.9,3.5V24.1c0,3-.3,3.3-3.4,3.5v1.1h17.7c.3-1,1.1-4.3,1.3-5.7l-1.2-.2Z" transform="translate(-5.4 -4.8)"/><path class="cls-1" d="M53.2,42.4c2.3,0,3.8-1.3,3.8-3.9V33.6H55.4v5c0,1.6-.8,2.4-2.1,2.4s-2.2-.9-2.2-2.5V33.6H49.5v5a3.4,3.4,0,0,0,3.7,3.8Z" transform="translate(-5.4 -4.8)"/><polygon class="cls-1" points="59.1 37.4 60.6 37.4 60.6 31.3 65.4 37.4 66.7 37.4 66.7 28.8 65.2 28.8 65.2 34.8 60.5 28.8 59.1 28.8 59.1 37.4 59.1 37.4"/><polygon class="cls-1" points="74.4 37.4 75.9 37.4 75.9 28.8 74.4 28.8 74.4 37.4 74.4 37.4"/><polygon class="cls-1" points="86.2 37.5 87.6 37.5 91.2 28.8 89.5 28.8 86.9 35.4 84.3 28.8 82.6 28.8 86.2 37.5 86.2 37.5"/><polygon class="cls-1" points="97.8 37.4 104.3 37.4 104.3 36.1 99.3 36.1 99.3 33.7 103.7 33.7 103.7 32.4 99.3 32.4 99.3 30.1 104.2 30.1 104.2 28.8 97.8 28.8 97.8 37.4 97.8 37.4"/><path class="cls-1" d="M117.2,42.2h1.5v-3h1.9l2.2,3h1.8L122.2,39a2.7,2.7,0,0,0,2.1-2.7h0a3.2,3.2,0,0,0-.7-1.9,3.7,3.7,0,0,0-2.5-.8h-3.9v8.6Zm1.5-4.3V35H121c1.1,0,1.7.5,1.7,1.4h0c0,.9-.6,1.5-1.7,1.5Z" transform="translate(-5.4 -4.8)"/><path class="cls-1" d="M134.6,42.4c1.9,0,3.1-1,3.1-2.6h0c0-1.5-.9-2.1-2.7-2.6s-2.1-.7-2.1-1.3h0c0-.5.5-1,1.4-1a4,4,0,0,1,2.4.9l.8-1.2a4.9,4.9,0,0,0-3.2-1c-1.7,0-2.9,1-2.9,2.5h0c0,1.6,1,2.1,2.9,2.6s1.9.7,1.9,1.3h0c0,.7-.6,1.1-1.5,1.1a4.3,4.3,0,0,1-2.8-1.1L131,41a5.6,5.6,0,0,0,3.6,1.4Z" transform="translate(-5.4 -4.8)"/><polygon class="cls-1" points="140 37.4 141.5 37.4 141.5 28.8 140 28.8 140 37.4 140 37.4"/><polygon class="cls-1" points="151.4 37.4 153 37.4 153 30.2 155.7 30.2 155.7 28.8 148.7 28.8 148.7 30.2 151.4 30.2 151.4 37.4 151.4 37.4"/></svg>