<?xml version="1.0" encoding="utf-8"?>
<!-- Generator: Adobe Illustrator 21.0.2, SVG Export Plug-In . SVG Version: 6.00 Build 0)  -->
<svg version="1.1" id="Layer_1" xmlns="http://www.w3.org/2000/svg" xmlns:xlink="http://www.w3.org/1999/xlink" x="0px" y="0px"
	 viewBox="0 0 50 50" style="enable-background:new 0 0 50 50;" xml:space="preserve">
<style type="text/css">
	.st0{fill:#DC143C;}
	.st1{fill:#FFFFFF;}
	.st2{fill:#F2F2F2;}
	.st3{fill:#CCCCCC;}
</style>
<path class="st0" d="M25,37.6c6.95,0,12.6-5.65,12.6-12.6c0-6.95-5.65-12.6-12.6-12.6c-6.95,0-12.6,5.65-12.6,12.6
	C12.4,31.95,18.05,37.6,25,37.6z M14.57,25c0-4.57,2.96-8.46,7.06-9.87c-0.04,0.04-0.08,0.08-0.11,0.12c-0.35,0.5-1,0-0.82,1.55
	c0.18,1.55-0.06,2.27,1.06,2.49c1.12,0.22,1.53-0.06,2.3,0c0.77,0.06,0.72,1.98,0.9,2.01c0,0,1.01,2.77,3.96,3.56
	c0.63,0.17-0.65,1.46-1.53,1.84c-0.88,0.39-1.71,0.44-1.83,1.38c-0.12,0.94,1.24,0.39,1.59,0.55s1.88,0.75,2.51-0.12
	c0.62-0.86,3.18-0.57,2.95-1.5c-0.53-2.09,2.96-3.05,1.95-4.43c-0.23-0.32-0.19-1.28-0.25-2.34c0.73,1.42,1.14,3.03,1.14,4.73
	c0,5.75-4.68,10.43-10.43,10.43c-1.28,0-2.51-0.23-3.65-0.66c0.46-0.41,0.94-1.31,1.03-1.61c0.11-0.35-0.27-1.27-0.27-1.45
	c0-0.18-1.08-1.44-1.35-1.62c-0.27-0.18,0-1.17,0-1.81c0-0.64-1.44-0.99-1.99-1.35c-0.54-0.36-0.72,0.99-1.35,0.72
	c-0.63-0.27-0.54-1.17-0.63-1.9c-0.07-0.52-1.45-0.68-2.22-0.74C14.57,25.01,14.57,25.01,14.57,25z"/>
<path class="st0" d="M42.32,13.32c0.03,0.05,0.06,0.1,0.09,0.15C42.38,13.43,42.35,13.37,42.32,13.32z"/>
<path class="st0" d="M33.13,5.76c0.17,0.07,0.33,0.17,0.5,0.24C33.46,5.92,33.3,5.83,33.13,5.76z"/>
<path class="st0" d="M45.81,26.52c-0.06,0.85-0.16,1.69-0.32,2.52C45.65,28.21,45.75,27.37,45.81,26.52z"/>
<path class="st0" d="M35.94,7.23c0.57,0.35,1.12,0.73,1.65,1.13C37.06,7.96,36.51,7.58,35.94,7.23z"/>
<path class="st0" d="M25,45.89C13.46,45.89,4.11,36.53,4.11,25v0C4.11,36.53,13.46,45.89,25,45.89c10.1,0,18.52-7.16,20.46-16.68
	C43.52,38.73,35.09,45.89,25,45.89z"/>
<path class="st3" d="M25,0C11.21,0,0,11.21,0,25s11.21,25,25,25s25-11.21,25-25S38.79,0,25,0z M4.11,25L4.11,25
	C4.11,25,4.11,25,4.11,25c0-4.33,1.32-8.34,3.57-11.68C11.43,7.77,17.79,4.11,25,4.11c2.88,0,5.63,0.58,8.13,1.64
	c0.17,0.07,0.33,0.17,0.5,0.24c0.8,0.36,1.56,0.78,2.31,1.23c0.57,0.35,1.12,0.73,1.65,1.13c1.83,1.39,3.44,3.05,4.73,4.96
	c0.03,0.05,0.06,0.1,0.09,0.15c2.19,3.3,3.47,7.26,3.47,11.52c0,0.51-0.04,1.02-0.08,1.52c-0.06,0.85-0.16,1.69-0.32,2.52
	c-0.01,0.06-0.01,0.12-0.03,0.17C43.52,38.73,35.09,45.89,25,45.89C13.46,45.89,4.11,36.53,4.11,25z"/>
<path class="st2" d="M16.79,25.75c0.09,0.72,0,1.63,0.63,1.9c0.63,0.27,0.81-1.08,1.35-0.72c0.54,0.36,1.99,0.71,1.99,1.35
	c0,0.64-0.27,1.63,0,1.81c0.27,0.18,1.35,1.44,1.35,1.62c0,0.18,0.38,1.1,0.27,1.45c-0.09,0.29-0.57,1.19-1.03,1.61
	c1.14,0.43,2.37,0.66,3.65,0.66c5.75,0,10.43-4.68,10.43-10.43c0-1.7-0.41-3.31-1.14-4.73c0.07,1.06,0.02,2.03,0.25,2.34
	c1.02,1.38-2.48,2.34-1.95,4.43c0.23,0.92-2.32,0.63-2.95,1.5c-0.62,0.86-2.15,0.28-2.51,0.12s-1.71,0.39-1.59-0.55
	c0.12-0.94,0.94-1,1.83-1.38c0.88-0.39,2.16-1.67,1.53-1.84c-2.95-0.79-3.96-3.56-3.96-3.56c-0.18-0.03-0.13-1.96-0.9-2.01
	c-0.77-0.06-1.18,0.22-2.3,0c-1.12-0.22-0.88-0.94-1.06-2.49c-0.18-1.55,0.47-1.05,0.82-1.55c0.03-0.04,0.07-0.08,0.11-0.12
	c-4.1,1.4-7.06,5.3-7.06,9.87c0,0.01,0,0.01,0,0.01C15.33,25.07,16.72,25.23,16.79,25.75z"/>
<path class="st2" d="M25,45.89c10.09,0,18.52-7.16,20.46-16.68c0.01-0.06,0.02-0.12,0.03-0.17c0.16-0.82,0.26-1.66,0.32-2.52
	c0.04-0.5,0.08-1.01,0.08-1.52c0-4.26-1.28-8.22-3.47-11.53c-0.03-0.05-0.06-0.1-0.09-0.15c-1.29-1.91-2.9-3.57-4.73-4.96
	c-0.53-0.4-1.08-0.78-1.65-1.13C35.2,6.78,34.43,6.36,33.63,6c-0.17-0.08-0.33-0.17-0.5-0.24C30.63,4.7,27.88,4.11,25,4.11
	c-7.21,0-13.57,3.65-17.32,9.21C5.43,16.66,4.11,20.67,4.11,25C4.11,36.53,13.46,45.89,25,45.89z M25,12.4
	c6.95,0,12.6,5.65,12.6,12.6c0,6.95-5.65,12.6-12.6,12.6c-6.95,0-12.6-5.65-12.6-12.6C12.4,18.05,18.05,12.4,25,12.4z"/>
<path class="st2" d="M33.63,6c0.8,0.36,1.56,0.78,2.31,1.23C35.2,6.78,34.43,6.36,33.63,6z"/>
<path class="st2" d="M4.11,25C4.11,25,4.11,25,4.11,25c0-4.33,1.32-8.34,3.57-11.68C5.43,16.66,4.11,20.67,4.11,25z"/>
<path class="st2" d="M45.81,26.52c0.04-0.5,0.08-1.01,0.08-1.52c0-4.26-1.28-8.22-3.47-11.52c2.19,3.3,3.47,7.26,3.47,11.53
	C45.89,25.51,45.85,26.02,45.81,26.52z"/>
<path class="st2" d="M25,4.11c2.88,0,5.63,0.58,8.13,1.64C30.63,4.7,27.88,4.11,25,4.11c-7.21,0-13.57,3.65-17.32,9.21
	C11.43,7.77,17.79,4.11,25,4.11z"/>
<path class="st2" d="M45.49,29.03c-0.01,0.06-0.01,0.12-0.03,0.17C45.48,29.15,45.48,29.09,45.49,29.03z"/>
<path class="st2" d="M42.32,13.32c-1.29-1.91-2.9-3.57-4.73-4.96C39.42,9.75,41.03,11.42,42.32,13.32z"/>
</svg>
